<svg width="143" height="18" viewBox="0 0 143 18" fill="none" xmlns="http://www.w3.org/2000/svg">
<path d="M0.8 17V0.511999H7.688C9.48 0.511999 10.992 0.807999 12.224 1.4C13.472 1.992 14.416 2.896 15.056 4.112C15.712 5.312 16.04 6.856 16.04 8.744C16.04 10.616 15.712 12.168 15.056 13.4C14.416 14.616 13.472 15.52 12.224 16.112C10.992 16.704 9.48 17 7.688 17H0.8ZM5.096 13.64H7.64C8.312 13.64 8.896 13.544 9.392 13.352C9.888 13.16 10.304 12.88 10.64 12.512C10.976 12.144 11.224 11.688 11.384 11.144C11.544 10.6 11.624 9.976 11.624 9.272V8.264C11.624 7.544 11.544 6.912 11.384 6.368C11.224 5.824 10.976 5.368 10.64 5C10.304 4.632 9.888 4.352 9.392 4.16C8.896 3.968 8.312 3.872 7.64 3.872H5.096V13.64ZM17.9572 17V0.511999H27.5332C28.7492 0.511999 29.7652 0.743999 30.5812 1.208C31.3972 1.656 32.0052 2.28 32.4052 3.08C32.8212 3.864 33.0292 4.744 33.0292 5.72C33.0292 6.776 32.7812 7.72 32.2852 8.552C31.8052 9.368 31.1252 10.008 30.2452 10.472L33.5572 17H28.7572L26.0212 11.192H22.2532V17H17.9572ZM22.2532 8H26.6932C27.2852 8 27.7572 7.808 28.1092 7.424C28.4772 7.024 28.6612 6.496 28.6612 5.84C28.6612 5.408 28.5812 5.04 28.4212 4.736C28.2612 4.432 28.0372 4.2 27.7492 4.04C27.4612 3.864 27.1092 3.776 26.6932 3.776H22.2532V8ZM34.9972 17V0.511999H39.2932V17H34.9972ZM46.3996 17L40.4716 0.511999H45.0796L48.1036 9.824C48.1676 10.016 48.2476 10.272 48.3436 10.592C48.4396 10.896 48.5356 11.216 48.6316 11.552C48.7436 11.872 48.8316 12.16 48.8956 12.416H49.0636C49.1436 12.176 49.2236 11.904 49.3036 11.6C49.3996 11.28 49.4956 10.968 49.5916 10.664C49.6876 10.344 49.7676 10.072 49.8316 9.848L52.8556 0.511999H57.2956L51.3916 17H46.3996ZM58.508 17V0.511999H72.116V3.872H62.804V6.968H70.94V10.256H62.804V13.64H72.284V17H58.508ZM80.5932 17.288C79.6972 17.288 78.8332 17.2 78.0012 17.024C77.1852 16.848 76.4572 16.568 75.8172 16.184C75.1772 15.784 74.6652 15.272 74.2812 14.648C73.9132 14.024 73.7292 13.256 73.7292 12.344C73.7292 12.264 73.7292 12.184 73.7292 12.104C73.7452 12.024 73.7532 11.944 73.7532 11.864H76.0572C76.0572 11.912 76.0492 11.992 76.0332 12.104C76.0332 12.2 76.0332 12.288 76.0332 12.368C76.0332 13.008 76.2252 13.552 76.6092 14C76.9932 14.448 77.5212 14.784 78.1932 15.008C78.8812 15.216 79.6572 15.32 80.5212 15.32C80.9052 15.32 81.3052 15.296 81.7212 15.248C82.1532 15.2 82.5612 15.12 82.9452 15.008C83.3452 14.88 83.6972 14.72 84.0012 14.528C84.3212 14.32 84.5692 14.072 84.7452 13.784C84.9372 13.48 85.0332 13.112 85.0332 12.68C85.0332 12.136 84.8732 11.688 84.5532 11.336C84.2492 10.968 83.8412 10.672 83.3292 10.448C82.8172 10.208 82.2332 10 81.5772 9.824C80.9372 9.632 80.2732 9.448 79.5852 9.272C78.8972 9.096 78.2252 8.896 77.5692 8.672C76.9292 8.432 76.3532 8.144 75.8412 7.808C75.3292 7.456 74.9132 7.024 74.5932 6.512C74.2892 6 74.1372 5.376 74.1372 4.64C74.1372 3.952 74.2732 3.336 74.5452 2.792C74.8332 2.248 75.2492 1.792 75.7932 1.424C76.3532 1.04 77.0412 0.751999 77.8572 0.559999C78.6732 0.351999 79.6092 0.248 80.6652 0.248C81.5292 0.248 82.3292 0.343999 83.0652 0.535999C83.8172 0.711999 84.4732 0.992 85.0332 1.376C85.6092 1.744 86.0572 2.216 86.3772 2.792C86.6972 3.368 86.8572 4.064 86.8572 4.88V5.168H84.6012V4.808C84.6012 4.264 84.4332 3.8 84.0972 3.416C83.7612 3.032 83.2972 2.736 82.7052 2.528C82.1292 2.32 81.4732 2.216 80.7372 2.216C79.7772 2.216 78.9772 2.312 78.3372 2.504C77.6972 2.68 77.2172 2.944 76.8972 3.296C76.5932 3.632 76.4412 4.016 76.4412 4.448C76.4412 4.944 76.5932 5.36 76.8972 5.696C77.2172 6.032 77.6332 6.312 78.1452 6.536C78.6572 6.744 79.2412 6.936 79.8972 7.112C80.5532 7.288 81.2172 7.472 81.8892 7.664C82.5772 7.84 83.2412 8.048 83.8812 8.288C84.5372 8.512 85.1212 8.8 85.6332 9.152C86.1612 9.488 86.5772 9.92 86.8812 10.448C87.1852 10.96 87.3372 11.592 87.3372 12.344C87.3372 13.512 87.0492 14.464 86.4732 15.2C85.8972 15.92 85.1052 16.448 84.0972 16.784C83.0892 17.12 81.9212 17.288 80.5932 17.288ZM89.7337 17V0.535999H92.0137V17H89.7337ZM102.588 17.288C99.9321 17.288 97.9081 16.592 96.5161 15.2C95.1401 13.808 94.4521 11.664 94.4521 8.768C94.4521 6.88 94.7721 5.304 95.4121 4.04C96.0521 2.776 96.9961 1.832 98.2441 1.208C99.4921 0.567999 101.012 0.248 102.804 0.248C103.924 0.248 104.94 0.368 105.852 0.607999C106.764 0.847999 107.548 1.216 108.204 1.712C108.876 2.192 109.388 2.8 109.74 3.536C110.108 4.272 110.292 5.144 110.292 6.152H107.964C107.964 5.448 107.836 4.848 107.58 4.352C107.324 3.84 106.956 3.424 106.476 3.104C106.012 2.784 105.468 2.56 104.844 2.432C104.22 2.288 103.556 2.216 102.852 2.216C101.892 2.216 101.036 2.336 100.284 2.576C99.5321 2.816 98.9001 3.192 98.3881 3.704C97.8761 4.216 97.4841 4.872 97.2121 5.672C96.9401 6.472 96.8041 7.424 96.8041 8.528V9.032C96.8041 10.52 97.0281 11.728 97.4761 12.656C97.9401 13.584 98.6041 14.264 99.4681 14.696C100.332 15.112 101.372 15.32 102.588 15.32C103.82 15.32 104.836 15.152 105.636 14.816C106.436 14.464 107.028 13.936 107.412 13.232C107.812 12.528 108.012 11.64 108.012 10.568V10.28H102.204V8.336H110.316V17H108.588L108.348 14.912C107.916 15.472 107.404 15.928 106.812 16.28C106.22 16.632 105.564 16.888 104.844 17.048C104.14 17.208 103.388 17.288 102.588 17.288ZM113.314 17V0.535999H115.594V7.592H124.546V0.535999H126.85V17H124.546V9.584H115.594V17H113.314ZM134.058 17V2.528H128.418V0.535999H142.026V2.528H136.338V17H134.058Z" fill="#192A3E"/>
</svg>
