<svg width="1280" height="240" viewBox="0 0 1280 240" fill="none" xmlns="http://www.w3.org/2000/svg">
<rect y="35" width="18.7717" height="18.7717" rx="5" fill="#ADCEFF"/>
<rect x="675.472" y="35" width="18.7717" height="18.7717" rx="5" fill="#ADCEFF"/>
<rect x="337.736" y="35" width="18.7717" height="18.7717" rx="5" fill="#EAEEF8"/>
<rect x="1013.21" y="35" width="18.7717" height="18.7717" rx="5" fill="#EAEEF8"/>
<rect x="168.868" y="35" width="18.7717" height="18.7717" rx="5" fill="#ADCEFF"/>
<rect x="844.34" y="35" width="18.7717" height="18.7717" rx="5" fill="#ADCEFF"/>
<rect x="506.604" y="35" width="18.7717" height="18.7717" rx="5" fill="#ADCEFF"/>
<rect x="1182.08" y="35" width="18.7717" height="18.7717" rx="5" fill="#EAEEF8"/>
<rect x="1230.13" y="35.4266" width="18.7717" height="18.7717" rx="5" fill="#EAEEF8"/>
<rect x="24.1239" y="35" width="18.7717" height="18.7717" rx="5" fill="#ADCEFF"/>
<rect x="699.596" y="35" width="18.7717" height="18.7717" rx="5" fill="#ADCEFF"/>
<rect x="361.86" y="35" width="18.7717" height="18.7717" rx="5" fill="#84B5FF"/>
<rect x="1037.33" y="35" width="18.7717" height="18.7717" rx="5" fill="#ADCEFF"/>
<rect x="192.992" y="35" width="18.7717" height="18.7717" rx="5" fill="#ADCEFF"/>
<rect x="868.464" y="35" width="18.7717" height="18.7717" rx="5" fill="#84B5FF"/>
<rect x="530.728" y="35" width="18.7717" height="18.7717" rx="5" fill="#EAEEF8"/>
<rect x="1206.2" y="35" width="18.7717" height="18.7717" rx="5" fill="#ADCEFF"/>
<rect x="1254.25" y="35.4266" width="18.7717" height="18.7717" rx="5" fill="#ADCEFF"/>
<rect x="48.2478" y="35" width="18.7717" height="18.7717" rx="5" fill="#EAEEF8"/>
<rect x="723.72" y="35" width="18.7717" height="18.7717" rx="5" fill="#84B5FF"/>
<rect x="385.984" y="35" width="18.7717" height="18.7717" rx="5" fill="#84B5FF"/>
<rect x="1061.46" y="35" width="18.7717" height="18.7717" rx="5" fill="#ADCEFF"/>
<rect x="217.116" y="35" width="18.7717" height="18.7717" rx="5" fill="#ADCEFF"/>
<rect x="892.588" y="35" width="18.7717" height="18.7717" rx="5" fill="#EAEEF8"/>
<rect x="554.852" y="35" width="18.7717" height="18.7717" rx="5" fill="#ADCEFF"/>
<rect x="72.3719" y="35" width="18.7717" height="18.7717" rx="5" fill="#ADCEFF"/>
<rect x="747.844" y="35" width="18.7717" height="18.7717" rx="5" fill="#EAEEF8"/>
<rect x="410.108" y="35" width="18.7717" height="18.7717" rx="5" fill="#ADCEFF"/>
<rect x="1085.58" y="35" width="18.7717" height="18.7717" rx="5" fill="#84B5FF"/>
<rect x="241.24" y="35" width="18.7717" height="18.7717" rx="5" fill="#EAEEF8"/>
<rect x="916.712" y="35" width="18.7717" height="18.7717" rx="5" fill="#EAEEF8"/>
<rect x="578.976" y="35" width="18.7717" height="18.7717" rx="5" fill="#ADCEFF"/>
<rect x="96.4958" y="35" width="18.7717" height="18.7717" rx="5" fill="#5B9DFF"/>
<rect x="771.968" y="35" width="18.7717" height="18.7717" rx="5" fill="#ADCEFF"/>
<rect x="434.232" y="35" width="18.7717" height="18.7717" rx="5" fill="#84B5FF"/>
<rect x="1109.7" y="35" width="18.7717" height="18.7717" rx="5" fill="#ADCEFF"/>
<rect x="265.364" y="35" width="18.7717" height="18.7717" rx="5" fill="#84B5FF"/>
<rect x="940.836" y="35" width="18.7717" height="18.7717" rx="5" fill="#ADCEFF"/>
<rect x="603.1" y="35" width="18.7717" height="18.7717" rx="5" fill="#ADCEFF"/>
<rect x="120.62" y="35" width="18.7717" height="18.7717" rx="5" fill="#3384FF"/>
<rect x="796.092" y="35" width="18.7717" height="18.7717" rx="5" fill="#ADCEFF"/>
<rect x="458.356" y="35" width="18.7717" height="18.7717" rx="5" fill="#ADCEFF"/>
<rect x="1133.83" y="35" width="18.7717" height="18.7717" rx="5" fill="#3384FF"/>
<rect x="289.488" y="35" width="18.7717" height="18.7717" rx="5" fill="#ADCEFF"/>
<rect x="964.96" y="35" width="18.7717" height="18.7717" rx="5" fill="#3384FF"/>
<rect x="627.224" y="35" width="18.7717" height="18.7717" rx="5" fill="#ADCEFF"/>
<rect x="144.744" y="35" width="18.7717" height="18.7717" rx="5" fill="#EAEEF8"/>
<rect x="820.216" y="35" width="18.7717" height="18.7717" rx="5" fill="#3384FF"/>
<rect x="482.48" y="35" width="18.7717" height="18.7717" rx="5" fill="#84B5FF"/>
<rect x="1157.95" y="35" width="18.7717" height="18.7717" rx="5" fill="#3384FF"/>
<rect x="313.612" y="35" width="18.7717" height="18.7717" rx="5" fill="#ADCEFF"/>
<rect x="989.084" y="35" width="18.7717" height="18.7717" rx="5" fill="#84B5FF"/>
<rect x="651.348" y="35" width="18.7717" height="18.7717" rx="5" fill="#ADCEFF"/>
<rect y="58.038" width="18.7717" height="18.7717" rx="5" fill="#84B5FF"/>
<rect x="675.472" y="58.038" width="18.7717" height="18.7717" rx="5" fill="#ADCEFF"/>
<rect x="337.736" y="58.038" width="18.7717" height="18.7717" rx="5" fill="#EAEEF8"/>
<rect x="1013.21" y="58.038" width="18.7717" height="18.7717" rx="5" fill="#ADCEFF"/>
<rect x="168.868" y="58.038" width="18.7717" height="18.7717" rx="5" fill="#84B5FF"/>
<rect x="844.34" y="58.038" width="18.7717" height="18.7717" rx="5" fill="#ADCEFF"/>
<rect x="506.604" y="58.038" width="18.7717" height="18.7717" rx="5" fill="#EAEEF8"/>
<rect x="1182.08" y="58.038" width="18.7717" height="18.7717" rx="5" fill="#5B9DFF"/>
<rect x="1254.25" y="57.7278" width="18.7717" height="18.7717" rx="5" fill="#84B5FF"/>
<rect x="24.1239" y="58.038" width="18.7717" height="18.7717" rx="5" fill="#84B5FF"/>
<rect x="699.596" y="58.038" width="18.7717" height="18.7717" rx="5" fill="#84B5FF"/>
<rect x="361.86" y="58.038" width="18.7717" height="18.7717" rx="5" fill="#84B5FF"/>
<rect x="1037.33" y="58.038" width="18.7717" height="18.7717" rx="5" fill="#84B5FF"/>
<rect x="192.992" y="58.038" width="18.7717" height="18.7717" rx="5" fill="#ADCEFF"/>
<rect x="868.464" y="58.038" width="18.7717" height="18.7717" rx="5" fill="#5B9DFF"/>
<rect x="530.728" y="58.038" width="18.7717" height="18.7717" rx="5" fill="#EAEEF8"/>
<rect x="1206.2" y="58.038" width="18.7717" height="18.7717" rx="5" fill="#5B9DFF"/>
<rect x="48.2478" y="58.038" width="18.7717" height="18.7717" rx="5" fill="#EAEEF8"/>
<rect x="723.72" y="58.038" width="18.7717" height="18.7717" rx="5" fill="#EAEEF8"/>
<rect x="385.984" y="58.038" width="18.7717" height="18.7717" rx="5" fill="#ADCEFF"/>
<rect x="1061.46" y="58.038" width="18.7717" height="18.7717" rx="5" fill="#ADCEFF"/>
<rect x="217.116" y="58.038" width="18.7717" height="18.7717" rx="5" fill="#ADCEFF"/>
<rect x="892.588" y="58.038" width="18.7717" height="18.7717" rx="5" fill="#EAEEF8"/>
<rect x="554.852" y="58.038" width="18.7717" height="18.7717" rx="5" fill="#ADCEFF"/>
<rect x="72.3719" y="58.038" width="18.7717" height="18.7717" rx="5" fill="#EAEEF8"/>
<rect x="747.844" y="58.038" width="18.7717" height="18.7717" rx="5" fill="#EAEEF8"/>
<rect x="410.108" y="58.038" width="18.7717" height="18.7717" rx="5" fill="#ADCEFF"/>
<rect x="1085.58" y="58.038" width="18.7717" height="18.7717" rx="5" fill="#84B5FF"/>
<rect x="241.24" y="58.038" width="18.7717" height="18.7717" rx="5" fill="#EAEEF8"/>
<rect x="916.712" y="58.038" width="18.7717" height="18.7717" rx="5" fill="#ADCEFF"/>
<rect x="578.976" y="58.038" width="18.7717" height="18.7717" rx="5" fill="#ADCEFF"/>
<rect x="96.4958" y="58.038" width="18.7717" height="18.7717" rx="5" fill="#EAEEF8"/>
<rect x="771.968" y="58.038" width="18.7717" height="18.7717" rx="5" fill="#EAEEF8"/>
<rect x="434.232" y="58.038" width="18.7717" height="18.7717" rx="5" fill="#EAEEF8"/>
<rect x="1109.7" y="58.038" width="18.7717" height="18.7717" rx="5" fill="#84B5FF"/>
<rect x="265.364" y="58.038" width="18.7717" height="18.7717" rx="5" fill="#EAEEF8"/>
<rect x="940.836" y="58.038" width="18.7717" height="18.7717" rx="5" fill="#5B9DFF"/>
<rect x="603.1" y="58.038" width="18.7717" height="18.7717" rx="5" fill="#EAEEF8"/>
<rect x="120.62" y="58.038" width="18.7717" height="18.7717" rx="5" fill="#EAEEF8"/>
<rect x="796.092" y="58.038" width="18.7717" height="18.7717" rx="5" fill="#84B5FF"/>
<rect x="458.356" y="58.038" width="18.7717" height="18.7717" rx="5" fill="#EAEEF8"/>
<rect x="1133.83" y="58.038" width="18.7717" height="18.7717" rx="5" fill="#5B9DFF"/>
<rect x="289.488" y="58.038" width="18.7717" height="18.7717" rx="5" fill="#EAEEF8"/>
<rect x="964.96" y="58.038" width="18.7717" height="18.7717" rx="5" fill="#ADCEFF"/>
<rect x="627.224" y="58.038" width="18.7717" height="18.7717" rx="5" fill="#EAEEF8"/>
<rect x="144.744" y="58.038" width="18.7717" height="18.7717" rx="5" fill="#ADCEFF"/>
<rect x="820.216" y="58.038" width="18.7717" height="18.7717" rx="5" fill="#ADCEFF"/>
<rect x="482.48" y="58.038" width="18.7717" height="18.7717" rx="5" fill="#ADCEFF"/>
<rect x="1157.95" y="58.038" width="18.7717" height="18.7717" rx="5" fill="#84B5FF"/>
<rect x="1230.13" y="57.7278" width="18.7717" height="18.7717" rx="5" fill="#ADCEFF"/>
<rect x="313.612" y="58.038" width="18.7717" height="18.7717" rx="5" fill="#ADCEFF"/>
<rect x="989.084" y="58.038" width="18.7717" height="18.7717" rx="5" fill="#5B9DFF"/>
<rect x="651.348" y="58.038" width="18.7717" height="18.7717" rx="5" fill="#ADCEFF"/>
<rect y="81.0761" width="18.7717" height="18.7717" rx="5" fill="#ADCEFF"/>
<rect x="675.472" y="81.076" width="18.7717" height="18.7717" rx="5" fill="#EAEEF8"/>
<rect x="337.736" y="81.076" width="18.7717" height="18.7717" rx="5" fill="#84B5FF"/>
<rect x="1013.21" y="81.076" width="18.7717" height="18.7717" rx="5" fill="#ADCEFF"/>
<rect x="168.868" y="81.076" width="18.7717" height="18.7717" rx="5" fill="#ADCEFF"/>
<rect x="844.34" y="81.076" width="18.7717" height="18.7717" rx="5" fill="#ADCEFF"/>
<rect x="506.604" y="81.076" width="18.7717" height="18.7717" rx="5" fill="#EAEEF8"/>
<rect x="1182.08" y="81.076" width="18.7717" height="18.7717" rx="5" fill="#84B5FF"/>
<rect x="1254.29" y="80.921" width="18.7717" height="18.7717" rx="5" fill="#EAEEF8"/>
<rect x="24.1239" y="81.076" width="18.7717" height="18.7717" rx="5" fill="#84B5FF"/>
<rect x="699.596" y="81.076" width="18.7717" height="18.7717" rx="5" fill="#84B5FF"/>
<rect x="361.86" y="81.076" width="18.7717" height="18.7717" rx="5" fill="#EAEEF8"/>
<rect x="1037.33" y="81.076" width="18.7717" height="18.7717" rx="5" fill="#84B5FF"/>
<rect x="192.992" y="81.076" width="18.7717" height="18.7717" rx="5" fill="#84B5FF"/>
<rect x="868.464" y="81.076" width="18.7717" height="18.7717" rx="5" fill="#84B5FF"/>
<rect x="530.728" y="81.076" width="18.7717" height="18.7717" rx="5" fill="#ADCEFF"/>
<rect x="48.2478" y="81.076" width="18.7717" height="18.7717" rx="5" fill="#EAEEF8"/>
<rect x="723.72" y="81.076" width="18.7717" height="18.7717" rx="5" fill="#EAEEF8"/>
<rect x="385.984" y="81.076" width="18.7717" height="18.7717" rx="5" fill="#EAEEF8"/>
<rect x="1061.46" y="81.076" width="18.7717" height="18.7717" rx="5" fill="#ADCEFF"/>
<rect x="217.116" y="81.076" width="18.7717" height="18.7717" rx="5" fill="#ADCEFF"/>
<rect x="892.588" y="81.076" width="18.7717" height="18.7717" rx="5" fill="#ADCEFF"/>
<rect x="554.852" y="81.076" width="18.7717" height="18.7717" rx="5" fill="#ADCEFF"/>
<rect x="72.3719" y="81.076" width="18.7717" height="18.7717" rx="5" fill="#ADCEFF"/>
<rect x="747.844" y="81.076" width="18.7717" height="18.7717" rx="5" fill="#EAEEF8"/>
<rect x="410.108" y="81.076" width="18.7717" height="18.7717" rx="5" fill="#ADCEFF"/>
<rect x="1085.58" y="81.076" width="18.7717" height="18.7717" rx="5" fill="#ADCEFF"/>
<rect x="241.24" y="81.076" width="18.7717" height="18.7717" rx="5" fill="#ADCEFF"/>
<rect x="916.712" y="81.076" width="18.7717" height="18.7717" rx="5" fill="#84B5FF"/>
<rect x="578.976" y="81.076" width="18.7717" height="18.7717" rx="5" fill="#ADCEFF"/>
<rect x="96.4958" y="81.076" width="18.7717" height="18.7717" rx="5" fill="#EAEEF8"/>
<rect x="771.968" y="81.076" width="18.7717" height="18.7717" rx="5" fill="#ADCEFF"/>
<rect x="434.232" y="81.076" width="18.7717" height="18.7717" rx="5" fill="#EAEEF8"/>
<rect x="1109.7" y="81.076" width="18.7717" height="18.7717" rx="5" fill="#5B9DFF"/>
<rect x="265.364" y="81.076" width="18.7717" height="18.7717" rx="5" fill="#ADCEFF"/>
<rect x="940.836" y="81.076" width="18.7717" height="18.7717" rx="5" fill="#ADCEFF"/>
<rect x="603.1" y="81.076" width="18.7717" height="18.7717" rx="5" fill="#ADCEFF"/>
<rect x="120.62" y="81.076" width="18.7717" height="18.7717" rx="5" fill="#EAEEF8"/>
<rect x="796.092" y="81.076" width="18.7717" height="18.7717" rx="5" fill="#84B5FF"/>
<rect x="458.356" y="81.076" width="18.7717" height="18.7717" rx="5" fill="#EAEEF8"/>
<rect x="1133.83" y="81.076" width="18.7717" height="18.7717" rx="5" fill="#3384FF"/>
<rect x="1206.05" y="80.921" width="18.7717" height="18.7717" rx="5" fill="#3384FF"/>
<rect x="289.488" y="81.076" width="18.7717" height="18.7717" rx="5" fill="#EAEEF8"/>
<rect x="964.96" y="81.076" width="18.7717" height="18.7717" rx="5" fill="#84B5FF"/>
<rect x="627.224" y="81.076" width="18.7717" height="18.7717" rx="5" fill="#EAEEF8"/>
<rect x="144.744" y="81.076" width="18.7717" height="18.7717" rx="5" fill="#ADCEFF"/>
<rect x="820.216" y="81.076" width="18.7717" height="18.7717" rx="5" fill="#ADCEFF"/>
<rect x="482.48" y="81.076" width="18.7717" height="18.7717" rx="5" fill="#ADCEFF"/>
<rect x="1157.95" y="81.076" width="18.7717" height="18.7717" rx="5" fill="#3384FF"/>
<rect x="1230.17" y="80.921" width="18.7717" height="18.7717" rx="5" fill="#EAEEF8"/>
<rect x="313.612" y="81.076" width="18.7717" height="18.7717" rx="5" fill="#EAEEF8"/>
<rect x="989.084" y="81.076" width="18.7717" height="18.7717" rx="5" fill="#84B5FF"/>
<rect x="651.348" y="81.076" width="18.7717" height="18.7717" rx="5" fill="#ADCEFF"/>
<rect y="104.114" width="18.7717" height="18.7717" rx="5" fill="#84B5FF"/>
<rect x="675.472" y="104.114" width="18.7717" height="18.7717" rx="5" fill="#84B5FF"/>
<rect x="337.736" y="104.114" width="18.7717" height="18.7717" rx="5" fill="#ADCEFF"/>
<rect x="1013.21" y="104.114" width="18.7717" height="18.7717" rx="5" fill="#84B5FF"/>
<rect x="168.868" y="104.114" width="18.7717" height="18.7717" rx="5" fill="#84B5FF"/>
<rect x="844.34" y="104.114" width="18.7717" height="18.7717" rx="5" fill="#ADCEFF"/>
<rect x="506.604" y="104.114" width="18.7717" height="18.7717" rx="5" fill="#EAEEF8"/>
<rect x="1182.08" y="104.114" width="18.7717" height="18.7717" rx="5" fill="#5B9DFF"/>
<rect x="1254.29" y="104.114" width="18.7717" height="18.7717" rx="5" fill="#EAEEF8"/>
<rect x="24.1239" y="104.114" width="18.7717" height="18.7717" rx="5" fill="#84B5FF"/>
<rect x="699.596" y="104.114" width="18.7717" height="18.7717" rx="5" fill="#ADCEFF"/>
<rect x="361.86" y="104.114" width="18.7717" height="18.7717" rx="5" fill="#ADCEFF"/>
<rect x="1037.33" y="104.114" width="18.7717" height="18.7717" rx="5" fill="#84B5FF"/>
<rect x="192.992" y="104.114" width="18.7717" height="18.7717" rx="5" fill="#ADCEFF"/>
<rect x="868.464" y="104.114" width="18.7717" height="18.7717" rx="5" fill="#5B9DFF"/>
<rect x="530.728" y="104.114" width="18.7717" height="18.7717" rx="5" fill="#EAEEF8"/>
<rect x="48.2478" y="104.114" width="18.7717" height="18.7717" rx="5" fill="#ADCEFF"/>
<rect x="723.72" y="104.114" width="18.7717" height="18.7717" rx="5" fill="#ADCEFF"/>
<rect x="385.984" y="104.114" width="18.7717" height="18.7717" rx="5" fill="#ADCEFF"/>
<rect x="1061.46" y="104.114" width="18.7717" height="18.7717" rx="5" fill="#ADCEFF"/>
<rect x="217.116" y="104.114" width="18.7717" height="18.7717" rx="5" fill="#84B5FF"/>
<rect x="892.588" y="104.114" width="18.7717" height="18.7717" rx="5" fill="#EAEEF8"/>
<rect x="554.852" y="104.114" width="18.7717" height="18.7717" rx="5" fill="#EAEEF8"/>
<rect x="72.3719" y="104.114" width="18.7717" height="18.7717" rx="5" fill="#EAEEF8"/>
<rect x="747.844" y="104.114" width="18.7717" height="18.7717" rx="5" fill="#ADCEFF"/>
<rect x="410.108" y="104.114" width="18.7717" height="18.7717" rx="5" fill="#ADCEFF"/>
<rect x="1085.58" y="104.114" width="18.7717" height="18.7717" rx="5" fill="#84B5FF"/>
<rect x="241.24" y="104.114" width="18.7717" height="18.7717" rx="5" fill="#ADCEFF"/>
<rect x="916.712" y="104.114" width="18.7717" height="18.7717" rx="5" fill="#ADCEFF"/>
<rect x="578.976" y="104.114" width="18.7717" height="18.7717" rx="5" fill="#84B5FF"/>
<rect x="96.4958" y="104.114" width="18.7717" height="18.7717" rx="5" fill="#ADCEFF"/>
<rect x="771.968" y="104.114" width="18.7717" height="18.7717" rx="5" fill="#EAEEF8"/>
<rect x="434.232" y="104.114" width="18.7717" height="18.7717" rx="5" fill="#ADCEFF"/>
<rect x="1109.7" y="104.114" width="18.7717" height="18.7717" rx="5" fill="#84B5FF"/>
<rect x="265.364" y="104.114" width="18.7717" height="18.7717" rx="5" fill="#EAEEF8"/>
<rect x="940.836" y="104.114" width="18.7717" height="18.7717" rx="5" fill="#84B5FF"/>
<rect x="603.1" y="104.114" width="18.7717" height="18.7717" rx="5" fill="#ADCEFF"/>
<rect x="120.62" y="104.114" width="18.7717" height="18.7717" rx="5" fill="#ADCEFF"/>
<rect x="796.092" y="104.114" width="18.7717" height="18.7717" rx="5" fill="#3384FF"/>
<rect x="458.356" y="104.114" width="18.7717" height="18.7717" rx="5" fill="#ADCEFF"/>
<rect x="1133.83" y="104.114" width="18.7717" height="18.7717" rx="5" fill="#3384FF"/>
<rect x="1206.05" y="104.114" width="18.7717" height="18.7717" rx="5" fill="#5B9DFF"/>
<rect x="289.488" y="104.114" width="18.7717" height="18.7717" rx="5" fill="#ADCEFF"/>
<rect x="964.96" y="104.114" width="18.7717" height="18.7717" rx="5" fill="#5B9DFF"/>
<rect x="627.224" y="104.114" width="18.7717" height="18.7717" rx="5" fill="#EAEEF8"/>
<rect x="144.744" y="104.114" width="18.7717" height="18.7717" rx="5" fill="#84B5FF"/>
<rect x="820.216" y="104.114" width="18.7717" height="18.7717" rx="5" fill="#5B9DFF"/>
<rect x="482.48" y="104.114" width="18.7717" height="18.7717" rx="5" fill="#EAEEF8"/>
<rect x="1157.95" y="104.114" width="18.7717" height="18.7717" rx="5" fill="#84B5FF"/>
<rect x="1230.17" y="104.114" width="18.7717" height="18.7717" rx="5" fill="#EAEEF8"/>
<rect x="313.612" y="104.114" width="18.7717" height="18.7717" rx="5" fill="#ADCEFF"/>
<rect x="989.084" y="104.114" width="18.7717" height="18.7717" rx="5" fill="#84B5FF"/>
<rect x="651.348" y="104.114" width="18.7717" height="18.7717" rx="5" fill="#ADCEFF"/>
<rect y="127.152" width="18.7717" height="18.7717" rx="5" fill="#84B5FF"/>
<rect x="675.472" y="127.152" width="18.7717" height="18.7717" rx="5" fill="#ADCEFF"/>
<rect x="337.736" y="127.152" width="18.7717" height="18.7717" rx="5" fill="#84B5FF"/>
<rect x="1013.21" y="127.152" width="18.7717" height="18.7717" rx="5" fill="#84B5FF"/>
<rect x="168.868" y="127.152" width="18.7717" height="18.7717" rx="5" fill="#ADCEFF"/>
<rect x="844.34" y="127.152" width="18.7717" height="18.7717" rx="5" fill="#3384FF"/>
<rect x="506.604" y="127.152" width="18.7717" height="18.7717" rx="5" fill="#EAEEF8"/>
<rect x="1182.08" y="127.152" width="18.7717" height="18.7717" rx="5" fill="#3384FF"/>
<rect x="1254.29" y="127.307" width="18.7717" height="18.7717" rx="5" fill="#EAEEF8"/>
<rect x="24.1239" y="127.152" width="18.7717" height="18.7717" rx="5" fill="#ADCEFF"/>
<rect x="699.596" y="127.152" width="18.7717" height="18.7717" rx="5" fill="#84B5FF"/>
<rect x="361.86" y="127.152" width="18.7717" height="18.7717" rx="5" fill="#EAEEF8"/>
<rect x="1037.33" y="127.152" width="18.7717" height="18.7717" rx="5" fill="#3384FF"/>
<rect x="192.992" y="127.152" width="18.7717" height="18.7717" rx="5" fill="#ADCEFF"/>
<rect x="868.464" y="127.152" width="18.7717" height="18.7717" rx="5" fill="#84B5FF"/>
<rect x="530.728" y="127.152" width="18.7717" height="18.7717" rx="5" fill="#EAEEF8"/>
<rect x="48.2478" y="127.152" width="18.7717" height="18.7717" rx="5" fill="#ADCEFF"/>
<rect x="723.72" y="127.152" width="18.7717" height="18.7717" rx="5" fill="#84B5FF"/>
<rect x="385.984" y="127.152" width="18.7717" height="18.7717" rx="5" fill="#EAEEF8"/>
<rect x="1061.46" y="127.152" width="18.7717" height="18.7717" rx="5" fill="#ADCEFF"/>
<rect x="217.116" y="127.152" width="18.7717" height="18.7717" rx="5" fill="#84B5FF"/>
<rect x="892.588" y="127.152" width="18.7717" height="18.7717" rx="5" fill="#ADCEFF"/>
<rect x="554.852" y="127.152" width="18.7717" height="18.7717" rx="5" fill="#ADCEFF"/>
<rect x="72.3719" y="127.152" width="18.7717" height="18.7717" rx="5" fill="#84B5FF"/>
<rect x="747.844" y="127.152" width="18.7717" height="18.7717" rx="5" fill="#ADCEFF"/>
<rect x="410.108" y="127.152" width="18.7717" height="18.7717" rx="5" fill="#EAEEF8"/>
<rect x="1085.58" y="127.152" width="18.7717" height="18.7717" rx="5" fill="#5B9DFF"/>
<rect x="241.24" y="127.152" width="18.7717" height="18.7717" rx="5" fill="#EAEEF8"/>
<rect x="916.712" y="127.152" width="18.7717" height="18.7717" rx="5" fill="#84B5FF"/>
<rect x="578.976" y="127.152" width="18.7717" height="18.7717" rx="5" fill="#EAEEF8"/>
<rect x="96.4958" y="127.152" width="18.7717" height="18.7717" rx="5" fill="#ADCEFF"/>
<rect x="771.968" y="127.152" width="18.7717" height="18.7717" rx="5" fill="#ADCEFF"/>
<rect x="434.232" y="127.152" width="18.7717" height="18.7717" rx="5" fill="#ADCEFF"/>
<rect x="1109.7" y="127.152" width="18.7717" height="18.7717" rx="5" fill="#84B5FF"/>
<rect x="265.364" y="127.152" width="18.7717" height="18.7717" rx="5" fill="#EAEEF8"/>
<rect x="940.836" y="127.152" width="18.7717" height="18.7717" rx="5" fill="#EAEEF8"/>
<rect x="603.1" y="127.152" width="18.7717" height="18.7717" rx="5" fill="#84B5FF"/>
<rect x="120.62" y="127.152" width="18.7717" height="18.7717" rx="5" fill="#ADCEFF"/>
<rect x="796.092" y="127.152" width="18.7717" height="18.7717" rx="5" fill="#84B5FF"/>
<rect x="458.356" y="127.152" width="18.7717" height="18.7717" rx="5" fill="#EAEEF8"/>
<rect x="1133.83" y="127.152" width="18.7717" height="18.7717" rx="5" fill="#84B5FF"/>
<rect x="1206.05" y="127.307" width="18.7717" height="18.7717" rx="5" fill="#5B9DFF"/>
<rect x="289.488" y="127.152" width="18.7717" height="18.7717" rx="5" fill="#ADCEFF"/>
<rect x="964.96" y="127.152" width="18.7717" height="18.7717" rx="5" fill="#3384FF"/>
<rect x="627.224" y="127.152" width="18.7717" height="18.7717" rx="5" fill="#EAEEF8"/>
<rect x="144.744" y="127.152" width="18.7717" height="18.7717" rx="5" fill="#ADCEFF"/>
<rect x="820.216" y="127.152" width="18.7717" height="18.7717" rx="5" fill="#EAEEF8"/>
<rect x="482.48" y="127.152" width="18.7717" height="18.7717" rx="5" fill="#EAEEF8"/>
<rect x="1157.95" y="127.152" width="18.7717" height="18.7717" rx="5" fill="#84B5FF"/>
<rect x="1230.17" y="127.307" width="18.7717" height="18.7717" rx="5" fill="#EAEEF8"/>
<rect x="313.612" y="127.152" width="18.7717" height="18.7717" rx="5" fill="#84B5FF"/>
<rect x="989.084" y="127.152" width="18.7717" height="18.7717" rx="5" fill="#EAEEF8"/>
<rect x="651.348" y="127.152" width="18.7717" height="18.7717" rx="5" fill="#EAEEF8"/>
<rect y="150.19" width="18.7717" height="18.7717" rx="5" fill="#EAEEF8"/>
<rect x="675.472" y="150.19" width="18.7717" height="18.7717" rx="5" fill="#84B5FF"/>
<rect x="337.736" y="150.19" width="18.7717" height="18.7717" rx="5" fill="#ADCEFF"/>
<rect x="1013.21" y="150.19" width="18.7717" height="18.7717" rx="5" fill="#5B9DFF"/>
<rect x="168.868" y="150.19" width="18.7717" height="18.7717" rx="5" fill="#ADCEFF"/>
<rect x="844.34" y="150.19" width="18.7717" height="18.7717" rx="5" fill="#3384FF"/>
<rect x="506.604" y="150.19" width="18.7717" height="18.7717" rx="5" fill="#EAEEF8"/>
<rect x="1182.08" y="150.19" width="18.7717" height="18.7717" rx="5" fill="#5B9DFF"/>
<rect x="1254.29" y="150.5" width="18.7717" height="18.7717" rx="5" fill="#EAEEF8"/>
<rect x="24.1239" y="150.19" width="18.7717" height="18.7717" rx="5" fill="#ADCEFF"/>
<rect x="699.596" y="150.19" width="18.7717" height="18.7717" rx="5" fill="#84B5FF"/>
<rect x="361.86" y="150.19" width="18.7717" height="18.7717" rx="5" fill="#84B5FF"/>
<rect x="1037.33" y="150.19" width="18.7717" height="18.7717" rx="5" fill="#5B9DFF"/>
<rect x="192.992" y="150.19" width="18.7717" height="18.7717" rx="5" fill="#84B5FF"/>
<rect x="868.464" y="150.19" width="18.7717" height="18.7717" rx="5" fill="#84B5FF"/>
<rect x="530.728" y="150.19" width="18.7717" height="18.7717" rx="5" fill="#ADCEFF"/>
<rect x="48.2478" y="150.19" width="18.7717" height="18.7717" rx="5" fill="#EAEEF8"/>
<rect x="723.72" y="150.19" width="18.7717" height="18.7717" rx="5" fill="#ADCEFF"/>
<rect x="385.984" y="150.19" width="18.7717" height="18.7717" rx="5" fill="#ADCEFF"/>
<rect x="1061.46" y="150.19" width="18.7717" height="18.7717" rx="5" fill="#5B9DFF"/>
<rect x="217.116" y="150.19" width="18.7717" height="18.7717" rx="5" fill="#84B5FF"/>
<rect x="892.588" y="150.19" width="18.7717" height="18.7717" rx="5" fill="#EAEEF8"/>
<rect x="554.852" y="150.19" width="18.7717" height="18.7717" rx="5" fill="#EAEEF8"/>
<rect x="72.3719" y="150.19" width="18.7717" height="18.7717" rx="5" fill="#EAEEF8"/>
<rect x="747.844" y="150.19" width="18.7717" height="18.7717" rx="5" fill="#ADCEFF"/>
<rect x="410.108" y="150.19" width="18.7717" height="18.7717" rx="5" fill="#EAEEF8"/>
<rect x="1085.58" y="150.19" width="18.7717" height="18.7717" rx="5" fill="#ADCEFF"/>
<rect x="241.24" y="150.19" width="18.7717" height="18.7717" rx="5" fill="#EAEEF8"/>
<rect x="916.712" y="150.19" width="18.7717" height="18.7717" rx="5" fill="#3384FF"/>
<rect x="578.976" y="150.19" width="18.7717" height="18.7717" rx="5" fill="#EAEEF8"/>
<rect x="96.4958" y="150.19" width="18.7717" height="18.7717" rx="5" fill="#84B5FF"/>
<rect x="771.968" y="150.19" width="18.7717" height="18.7717" rx="5" fill="#84B5FF"/>
<rect x="434.232" y="150.19" width="18.7717" height="18.7717" rx="5" fill="#84B5FF"/>
<rect x="1109.7" y="150.19" width="18.7717" height="18.7717" rx="5" fill="#ADCEFF"/>
<rect x="265.364" y="150.19" width="18.7717" height="18.7717" rx="5" fill="#84B5FF"/>
<rect x="940.836" y="150.19" width="18.7717" height="18.7717" rx="5" fill="#5B9DFF"/>
<rect x="603.1" y="150.19" width="18.7717" height="18.7717" rx="5" fill="#84B5FF"/>
<rect x="120.62" y="150.19" width="18.7717" height="18.7717" rx="5" fill="#84B5FF"/>
<rect x="796.092" y="150.19" width="18.7717" height="18.7717" rx="5" fill="#5B9DFF"/>
<rect x="458.356" y="150.19" width="18.7717" height="18.7717" rx="5" fill="#EAEEF8"/>
<rect x="1133.83" y="150.19" width="18.7717" height="18.7717" rx="5" fill="#5B9DFF"/>
<rect x="1206.05" y="150.5" width="18.7717" height="18.7717" rx="5" fill="#ADCEFF"/>
<rect x="289.488" y="150.19" width="18.7717" height="18.7717" rx="5" fill="#ADCEFF"/>
<rect x="964.96" y="150.19" width="18.7717" height="18.7717" rx="5" fill="#84B5FF"/>
<rect x="627.224" y="150.19" width="18.7717" height="18.7717" rx="5" fill="#ADCEFF"/>
<rect x="144.744" y="150.19" width="18.7717" height="18.7717" rx="5" fill="#5B9DFF"/>
<rect x="820.216" y="150.19" width="18.7717" height="18.7717" rx="5" fill="#EAEEF8"/>
<rect x="482.48" y="150.19" width="18.7717" height="18.7717" rx="5" fill="#EAEEF8"/>
<rect x="1157.95" y="150.19" width="18.7717" height="18.7717" rx="5" fill="#ADCEFF"/>
<rect x="1230.17" y="150.5" width="18.7717" height="18.7717" rx="5" fill="#EAEEF8"/>
<rect x="313.612" y="150.19" width="18.7717" height="18.7717" rx="5" fill="#EAEEF8"/>
<rect x="989.084" y="150.19" width="18.7717" height="18.7717" rx="5" fill="#EAEEF8"/>
<rect x="651.348" y="150.19" width="18.7717" height="18.7717" rx="5" fill="#EAEEF8"/>
<rect y="173.228" width="18.7717" height="18.7717" rx="5" fill="#ADCEFF"/>
<rect x="675.472" y="173.228" width="18.7717" height="18.7717" rx="5" fill="#84B5FF"/>
<rect x="337.736" y="173.228" width="18.7717" height="18.7717" rx="5" fill="#5B9DFF"/>
<rect x="1013.21" y="173.228" width="18.7717" height="18.7717" rx="5" fill="#EAEEF8"/>
<rect x="168.868" y="173.228" width="18.7717" height="18.7717" rx="5" fill="#ADCEFF"/>
<rect x="844.34" y="173.228" width="18.7717" height="18.7717" rx="5" fill="#EAEEF8"/>
<rect x="506.604" y="173.228" width="18.7717" height="18.7717" rx="5" fill="#ADCEFF"/>
<rect x="1182.08" y="173.228" width="18.7717" height="18.7717" rx="5" fill="#ADCEFF"/>
<rect x="1254.29" y="172.802" width="18.7717" height="18.7717" rx="5" fill="#EAEEF8"/>
<rect x="24.1239" y="173.228" width="18.7717" height="18.7717" rx="5" fill="#EAEEF8"/>
<rect x="699.596" y="173.228" width="18.7717" height="18.7717" rx="5" fill="#EAEEF8"/>
<rect x="361.86" y="173.228" width="18.7717" height="18.7717" rx="5" fill="#ADCEFF"/>
<rect x="1037.33" y="173.228" width="18.7717" height="18.7717" rx="5" fill="#ADCEFF"/>
<rect x="192.992" y="173.228" width="18.7717" height="18.7717" rx="5" fill="#EAEEF8"/>
<rect x="868.464" y="173.228" width="18.7717" height="18.7717" rx="5" fill="#EAEEF8"/>
<rect x="530.728" y="173.228" width="18.7717" height="18.7717" rx="5" fill="#EAEEF8"/>
<rect x="48.2478" y="173.228" width="18.7717" height="18.7717" rx="5" fill="#ADCEFF"/>
<rect x="723.72" y="173.228" width="18.7717" height="18.7717" rx="5" fill="#EAEEF8"/>
<rect x="385.984" y="173.228" width="18.7717" height="18.7717" rx="5" fill="#ADCEFF"/>
<rect x="1061.46" y="173.228" width="18.7717" height="18.7717" rx="5" fill="#ADCEFF"/>
<rect x="217.116" y="173.228" width="18.7717" height="18.7717" rx="5" fill="#84B5FF"/>
<rect x="892.588" y="173.228" width="18.7717" height="18.7717" rx="5" fill="#EAEEF8"/>
<rect x="554.852" y="173.228" width="18.7717" height="18.7717" rx="5" fill="#ADCEFF"/>
<rect x="72.3719" y="173.228" width="18.7717" height="18.7717" rx="5" fill="#EAEEF8"/>
<rect x="747.844" y="173.228" width="18.7717" height="18.7717" rx="5" fill="#EAEEF8"/>
<rect x="410.108" y="173.228" width="18.7717" height="18.7717" rx="5" fill="#84B5FF"/>
<rect x="1085.58" y="173.228" width="18.7717" height="18.7717" rx="5" fill="#ADCEFF"/>
<rect x="241.24" y="173.228" width="18.7717" height="18.7717" rx="5" fill="#EAEEF8"/>
<rect x="916.712" y="173.228" width="18.7717" height="18.7717" rx="5" fill="#3384FF"/>
<rect x="578.976" y="173.228" width="18.7717" height="18.7717" rx="5" fill="#EAEEF8"/>
<rect x="96.4958" y="173.228" width="18.7717" height="18.7717" rx="5" fill="#ADCEFF"/>
<rect x="771.968" y="173.228" width="18.7717" height="18.7717" rx="5" fill="#ADCEFF"/>
<rect x="434.232" y="173.228" width="18.7717" height="18.7717" rx="5" fill="#EAEEF8"/>
<rect x="1109.7" y="173.228" width="18.7717" height="18.7717" rx="5" fill="#5B9DFF"/>
<rect x="265.364" y="173.228" width="18.7717" height="18.7717" rx="5" fill="#84B5FF"/>
<rect x="940.836" y="173.228" width="18.7717" height="18.7717" rx="5" fill="#84B5FF"/>
<rect x="603.1" y="173.228" width="18.7717" height="18.7717" rx="5" fill="#EAEEF8"/>
<rect x="120.62" y="173.228" width="18.7717" height="18.7717" rx="5" fill="#EAEEF8"/>
<rect x="796.092" y="173.228" width="18.7717" height="18.7717" rx="5" fill="#84B5FF"/>
<rect x="458.356" y="173.228" width="18.7717" height="18.7717" rx="5" fill="#EAEEF8"/>
<rect x="1133.83" y="173.228" width="18.7717" height="18.7717" rx="5" fill="#ADCEFF"/>
<rect x="1206.05" y="172.802" width="18.7717" height="18.7717" rx="5" fill="#EAEEF8"/>
<rect x="289.488" y="173.228" width="18.7717" height="18.7717" rx="5" fill="#ADCEFF"/>
<rect x="964.96" y="173.228" width="18.7717" height="18.7717" rx="5" fill="#84B5FF"/>
<rect x="627.224" y="173.228" width="18.7717" height="18.7717" rx="5" fill="#ADCEFF"/>
<rect x="144.744" y="173.228" width="18.7717" height="18.7717" rx="5" fill="#5B9DFF"/>
<rect x="820.216" y="173.228" width="18.7717" height="18.7717" rx="5" fill="#ADCEFF"/>
<rect x="482.48" y="173.228" width="18.7717" height="18.7717" rx="5" fill="#ADCEFF"/>
<rect x="1157.95" y="173.228" width="18.7717" height="18.7717" rx="5" fill="#EAEEF8"/>
<rect x="1230.17" y="172.802" width="18.7717" height="18.7717" rx="5" fill="#EAEEF8"/>
<rect x="313.612" y="173.228" width="18.7717" height="18.7717" rx="5" fill="#84B5FF"/>
<rect x="989.084" y="173.228" width="18.7717" height="18.7717" rx="5" fill="#ADCEFF"/>
<rect x="651.348" y="173.228" width="18.7717" height="18.7717" rx="5" fill="#84B5FF"/>
<rect x="1156.12" y="218.427" width="18.7717" height="18.7717" rx="5" fill="#3384FF" fill-opacity="0.8"/>
<rect x="1228.34" y="218" width="18.7717" height="18.7717" rx="5" fill="#E8EAEE"/>
<rect x="1180.09" y="218" width="18.7717" height="18.7717" rx="5" fill="#3384FF" fill-opacity="0.6"/>
<rect x="1132" y="218.427" width="18.7717" height="18.7717" rx="5" fill="#3384FF"/>
<rect x="1204.22" y="218" width="18.7717" height="18.7717" rx="5" fill="#3384FF" fill-opacity="0.4"/>
<path d="M12.136 4.636V10.816C12.136 11.504 11.924 12.056 11.5 12.472C11.076 12.88 10.516 13.084 9.82 13.084C9.116 13.084 8.552 12.876 8.128 12.46C7.704 12.036 7.492 11.46 7.492 10.732H8.584C8.592 11.14 8.696 11.472 8.896 11.728C9.104 11.984 9.412 12.112 9.82 12.112C10.228 12.112 10.532 11.992 10.732 11.752C10.932 11.504 11.032 11.192 11.032 10.816V4.636H12.136ZM13.8793 9.688C13.8793 9.016 14.0153 8.428 14.2873 7.924C14.5593 7.412 14.9313 7.016 15.4033 6.736C15.8833 6.456 16.4153 6.316 16.9993 6.316C17.5753 6.316 18.0753 6.44 18.4993 6.688C18.9233 6.936 19.2393 7.248 19.4473 7.624V6.424H20.5513V13H19.4473V11.776C19.2313 12.16 18.9073 12.48 18.4753 12.736C18.0513 12.984 17.5553 13.108 16.9873 13.108C16.4033 13.108 15.8753 12.964 15.4033 12.676C14.9313 12.388 14.5593 11.984 14.2873 11.464C14.0153 10.944 13.8793 10.352 13.8793 9.688ZM19.4473 9.7C19.4473 9.204 19.3473 8.772 19.1473 8.404C18.9473 8.036 18.6753 7.756 18.3313 7.564C17.9953 7.364 17.6233 7.264 17.2153 7.264C16.8073 7.264 16.4353 7.36 16.0993 7.552C15.7633 7.744 15.4953 8.024 15.2953 8.392C15.0953 8.76 14.9953 9.192 14.9953 9.688C14.9953 10.192 15.0953 10.632 15.2953 11.008C15.4953 11.376 15.7633 11.66 16.0993 11.86C16.4353 12.052 16.8073 12.148 17.2153 12.148C17.6233 12.148 17.9953 12.052 18.3313 11.86C18.6753 11.66 18.9473 11.376 19.1473 11.008C19.3473 10.632 19.4473 10.196 19.4473 9.7ZM25.6007 6.304C26.4007 6.304 27.0487 6.548 27.5447 7.036C28.0407 7.516 28.2887 8.212 28.2887 9.124V13H27.2087V9.28C27.2087 8.624 27.0447 8.124 26.7167 7.78C26.3887 7.428 25.9407 7.252 25.3727 7.252C24.7967 7.252 24.3367 7.432 23.9927 7.792C23.6567 8.152 23.4887 8.676 23.4887 9.364V13H22.3967V6.424H23.4887V7.36C23.7047 7.024 23.9967 6.764 24.3647 6.58C24.7407 6.396 25.1527 6.304 25.6007 6.304ZM194.761 4.636V5.524H191.125V8.344H194.077V9.232H191.125V13H190.033V4.636H194.761ZM202.08 9.46C202.08 9.668 202.068 9.888 202.044 10.12H196.788C196.828 10.768 197.048 11.276 197.448 11.644C197.856 12.004 198.348 12.184 198.924 12.184C199.396 12.184 199.788 12.076 200.1 11.86C200.42 11.636 200.644 11.34 200.772 10.972H201.948C201.772 11.604 201.42 12.12 200.892 12.52C200.364 12.912 199.708 13.108 198.924 13.108C198.3 13.108 197.74 12.968 197.244 12.688C196.756 12.408 196.372 12.012 196.092 11.5C195.812 10.98 195.672 10.38 195.672 9.7C195.672 9.02 195.808 8.424 196.08 7.912C196.352 7.4 196.732 7.008 197.22 6.736C197.716 6.456 198.284 6.316 198.924 6.316C199.548 6.316 200.1 6.452 200.58 6.724C201.06 6.996 201.428 7.372 201.684 7.852C201.948 8.324 202.08 8.86 202.08 9.46ZM200.952 9.232C200.952 8.816 200.86 8.46 200.676 8.164C200.492 7.86 200.24 7.632 199.92 7.48C199.608 7.32 199.26 7.24 198.876 7.24C198.324 7.24 197.852 7.416 197.46 7.768C197.076 8.12 196.856 8.608 196.8 9.232H200.952ZM204.614 7.648C204.838 7.256 205.166 6.936 205.598 6.688C206.03 6.44 206.522 6.316 207.074 6.316C207.666 6.316 208.198 6.456 208.67 6.736C209.142 7.016 209.514 7.412 209.786 7.924C210.058 8.428 210.194 9.016 210.194 9.688C210.194 10.352 210.058 10.944 209.786 11.464C209.514 11.984 209.138 12.388 208.658 12.676C208.186 12.964 207.658 13.108 207.074 13.108C206.506 13.108 206.006 12.984 205.574 12.736C205.15 12.488 204.83 12.172 204.614 11.788V13H203.522V4.12H204.614V7.648ZM209.078 9.688C209.078 9.192 208.978 8.76 208.778 8.392C208.578 8.024 208.306 7.744 207.962 7.552C207.626 7.36 207.254 7.264 206.846 7.264C206.446 7.264 206.074 7.364 205.73 7.564C205.394 7.756 205.122 8.04 204.914 8.416C204.714 8.784 204.614 9.212 204.614 9.7C204.614 10.196 204.714 10.632 204.914 11.008C205.122 11.376 205.394 11.66 205.73 11.86C206.074 12.052 206.446 12.148 206.846 12.148C207.254 12.148 207.626 12.052 207.962 11.86C208.306 11.66 208.578 11.376 208.778 11.008C208.978 10.632 209.078 10.192 209.078 9.688ZM380.076 4.696V13H378.984V6.808L376.224 13H375.456L372.684 6.796V13H371.592V4.696H372.768L375.84 11.56L378.912 4.696H380.076ZM381.52 9.688C381.52 9.016 381.656 8.428 381.928 7.924C382.2 7.412 382.572 7.016 383.044 6.736C383.524 6.456 384.056 6.316 384.64 6.316C385.216 6.316 385.716 6.44 386.14 6.688C386.564 6.936 386.88 7.248 387.088 7.624V6.424H388.192V13H387.088V11.776C386.872 12.16 386.548 12.48 386.116 12.736C385.692 12.984 385.196 13.108 384.628 13.108C384.044 13.108 383.516 12.964 383.044 12.676C382.572 12.388 382.2 11.984 381.928 11.464C381.656 10.944 381.52 10.352 381.52 9.688ZM387.088 9.7C387.088 9.204 386.988 8.772 386.788 8.404C386.588 8.036 386.316 7.756 385.972 7.564C385.636 7.364 385.264 7.264 384.856 7.264C384.448 7.264 384.076 7.36 383.74 7.552C383.404 7.744 383.136 8.024 382.936 8.392C382.736 8.76 382.636 9.192 382.636 9.688C382.636 10.192 382.736 10.632 382.936 11.008C383.136 11.376 383.404 11.66 383.74 11.86C384.076 12.052 384.448 12.148 384.856 12.148C385.264 12.148 385.636 12.052 385.972 11.86C386.316 11.66 386.588 11.376 386.788 11.008C386.988 10.632 387.088 10.196 387.088 9.7ZM391.129 7.492C391.321 7.116 391.593 6.824 391.945 6.616C392.305 6.408 392.741 6.304 393.253 6.304V7.432H392.965C391.741 7.432 391.129 8.096 391.129 9.424V13H390.037V6.424H391.129V7.492ZM559.419 11.14H555.771L555.099 13H553.947L556.971 4.684H558.231L561.243 13H560.091L559.419 11.14ZM559.107 10.252L557.595 6.028L556.083 10.252H559.107ZM563.653 7.636C563.869 7.26 564.189 6.948 564.613 6.7C565.045 6.444 565.545 6.316 566.113 6.316C566.697 6.316 567.225 6.456 567.697 6.736C568.177 7.016 568.553 7.412 568.825 7.924C569.097 8.428 569.233 9.016 569.233 9.688C569.233 10.352 569.097 10.944 568.825 11.464C568.553 11.984 568.177 12.388 567.697 12.676C567.225 12.964 566.697 13.108 566.113 13.108C565.553 13.108 565.057 12.984 564.625 12.736C564.201 12.48 563.877 12.164 563.653 11.788V16.12H562.561V6.424H563.653V7.636ZM568.117 9.688C568.117 9.192 568.017 8.76 567.817 8.392C567.617 8.024 567.345 7.744 567.001 7.552C566.665 7.36 566.293 7.264 565.885 7.264C565.485 7.264 565.113 7.364 564.769 7.564C564.433 7.756 564.161 8.04 563.953 8.416C563.753 8.784 563.653 9.212 563.653 9.7C563.653 10.196 563.753 10.632 563.953 11.008C564.161 11.376 564.433 11.66 564.769 11.86C565.113 12.052 565.485 12.148 565.885 12.148C566.293 12.148 566.665 12.052 567.001 11.86C567.345 11.66 567.617 11.376 567.817 11.008C568.017 10.632 568.117 10.192 568.117 9.688ZM571.762 7.492C571.954 7.116 572.226 6.824 572.578 6.616C572.938 6.408 573.374 6.304 573.886 6.304V7.432H573.598C572.374 7.432 571.762 8.096 571.762 9.424V13H570.67V6.424H571.762V7.492ZM727.596 4.696V13H726.504V6.808L723.744 13H722.976L720.204 6.796V13H719.112V4.696H720.288L723.36 11.56L726.432 4.696H727.596ZM729.039 9.688C729.039 9.016 729.175 8.428 729.447 7.924C729.719 7.412 730.091 7.016 730.563 6.736C731.043 6.456 731.575 6.316 732.159 6.316C732.735 6.316 733.235 6.44 733.659 6.688C734.083 6.936 734.399 7.248 734.607 7.624V6.424H735.711V13H734.607V11.776C734.391 12.16 734.067 12.48 733.635 12.736C733.211 12.984 732.715 13.108 732.147 13.108C731.563 13.108 731.035 12.964 730.563 12.676C730.091 12.388 729.719 11.984 729.447 11.464C729.175 10.944 729.039 10.352 729.039 9.688ZM734.607 9.7C734.607 9.204 734.507 8.772 734.307 8.404C734.107 8.036 733.835 7.756 733.491 7.564C733.155 7.364 732.783 7.264 732.375 7.264C731.967 7.264 731.595 7.36 731.259 7.552C730.923 7.744 730.655 8.024 730.455 8.392C730.255 8.76 730.155 9.192 730.155 9.688C730.155 10.192 730.255 10.632 730.455 11.008C730.655 11.376 730.923 11.66 731.259 11.86C731.595 12.052 731.967 12.148 732.375 12.148C732.783 12.148 733.155 12.052 733.491 11.86C733.835 11.66 734.107 11.376 734.307 11.008C734.507 10.632 734.607 10.196 734.607 9.7ZM743.221 6.424L739.261 16.096H738.133L739.429 12.928L736.777 6.424H737.989L740.053 11.752L742.093 6.424H743.221ZM902.093 4.636V10.816C902.093 11.504 901.881 12.056 901.457 12.472C901.033 12.88 900.473 13.084 899.777 13.084C899.073 13.084 898.509 12.876 898.085 12.46C897.661 12.036 897.449 11.46 897.449 10.732H898.541C898.549 11.14 898.653 11.472 898.853 11.728C899.061 11.984 899.369 12.112 899.777 12.112C900.185 12.112 900.489 11.992 900.689 11.752C900.889 11.504 900.989 11.192 900.989 10.816V4.636H902.093ZM910.076 6.424V13H908.984V12.028C908.776 12.364 908.484 12.628 908.108 12.82C907.74 13.004 907.332 13.096 906.884 13.096C906.372 13.096 905.912 12.992 905.504 12.784C905.096 12.568 904.772 12.248 904.532 11.824C904.3 11.4 904.184 10.884 904.184 10.276V6.424H905.264V10.132C905.264 10.78 905.428 11.28 905.756 11.632C906.084 11.976 906.532 12.148 907.1 12.148C907.684 12.148 908.144 11.968 908.48 11.608C908.816 11.248 908.984 10.724 908.984 10.036V6.424H910.076ZM915.124 6.304C915.924 6.304 916.572 6.548 917.068 7.036C917.564 7.516 917.812 8.212 917.812 9.124V13H916.732V9.28C916.732 8.624 916.568 8.124 916.24 7.78C915.912 7.428 915.464 7.252 914.896 7.252C914.32 7.252 913.86 7.432 913.516 7.792C913.18 8.152 913.012 8.676 913.012 9.364V13H911.92V6.424H913.012V7.36C913.228 7.024 913.52 6.764 913.888 6.58C914.264 6.396 914.676 6.304 915.124 6.304ZM1080.57 4.636V10.816C1080.57 11.504 1080.36 12.056 1079.93 12.472C1079.51 12.88 1078.95 13.084 1078.25 13.084C1077.55 13.084 1076.99 12.876 1076.56 12.46C1076.14 12.036 1075.93 11.46 1075.93 10.732H1077.02C1077.03 11.14 1077.13 11.472 1077.33 11.728C1077.54 11.984 1077.85 12.112 1078.25 12.112C1078.66 12.112 1078.97 11.992 1079.17 11.752C1079.37 11.504 1079.47 11.192 1079.47 10.816V4.636H1080.57ZM1088.55 6.424V13H1087.46V12.028C1087.25 12.364 1086.96 12.628 1086.58 12.82C1086.22 13.004 1085.81 13.096 1085.36 13.096C1084.85 13.096 1084.39 12.992 1083.98 12.784C1083.57 12.568 1083.25 12.248 1083.01 11.824C1082.78 11.4 1082.66 10.884 1082.66 10.276V6.424H1083.74V10.132C1083.74 10.78 1083.9 11.28 1084.23 11.632C1084.56 11.976 1085.01 12.148 1085.58 12.148C1086.16 12.148 1086.62 11.968 1086.96 11.608C1087.29 11.248 1087.46 10.724 1087.46 10.036V6.424H1088.55ZM1091.49 4.12V13H1090.4V4.12H1091.49ZM1239.06 11.14H1235.41L1234.74 13H1233.59L1236.61 4.684H1237.87L1240.88 13H1239.73L1239.06 11.14ZM1238.75 10.252L1237.24 6.028L1235.72 10.252H1238.75ZM1248.03 6.424V13H1246.94V12.028C1246.73 12.364 1246.44 12.628 1246.07 12.82C1245.7 13.004 1245.29 13.096 1244.84 13.096C1244.33 13.096 1243.87 12.992 1243.46 12.784C1243.05 12.568 1242.73 12.248 1242.49 11.824C1242.26 11.4 1242.14 10.884 1242.14 10.276V6.424H1243.22V10.132C1243.22 10.78 1243.39 11.28 1243.71 11.632C1244.04 11.976 1244.49 12.148 1245.06 12.148C1245.64 12.148 1246.1 11.968 1246.44 11.608C1246.77 11.248 1246.94 10.724 1246.94 10.036V6.424H1248.03ZM1252.59 6.316C1253.16 6.316 1253.65 6.44 1254.08 6.688C1254.51 6.936 1254.83 7.248 1255.04 7.624V6.424H1256.14V13.144C1256.14 13.744 1256.01 14.276 1255.76 14.74C1255.5 15.212 1255.13 15.58 1254.65 15.844C1254.18 16.108 1253.63 16.24 1253 16.24C1252.13 16.24 1251.41 16.036 1250.84 15.628C1250.26 15.22 1249.92 14.664 1249.82 13.96H1250.9C1251.02 14.36 1251.27 14.68 1251.64 14.92C1252.02 15.168 1252.47 15.292 1253 15.292C1253.6 15.292 1254.09 15.104 1254.46 14.728C1254.85 14.352 1255.04 13.824 1255.04 13.144V11.764C1254.82 12.148 1254.5 12.468 1254.08 12.724C1253.65 12.98 1253.16 13.108 1252.59 13.108C1252.01 13.108 1251.47 12.964 1250.99 12.676C1250.52 12.388 1250.15 11.984 1249.88 11.464C1249.61 10.944 1249.47 10.352 1249.47 9.688C1249.47 9.016 1249.61 8.428 1249.88 7.924C1250.15 7.412 1250.52 7.016 1250.99 6.736C1251.47 6.456 1252.01 6.316 1252.59 6.316ZM1255.04 9.7C1255.04 9.204 1254.94 8.772 1254.74 8.404C1254.54 8.036 1254.27 7.756 1253.92 7.564C1253.59 7.364 1253.21 7.264 1252.81 7.264C1252.4 7.264 1252.03 7.36 1251.69 7.552C1251.35 7.744 1251.09 8.024 1250.89 8.392C1250.69 8.76 1250.59 9.192 1250.59 9.688C1250.59 10.192 1250.69 10.632 1250.89 11.008C1251.09 11.376 1251.35 11.66 1251.69 11.86C1252.03 12.052 1252.4 12.148 1252.81 12.148C1253.21 12.148 1253.59 12.052 1253.92 11.86C1254.27 11.66 1254.54 11.376 1254.74 11.008C1254.94 10.632 1255.04 10.196 1255.04 9.7Z" fill="black"/>
<path d="M1110.57 228.772V235H1109.75V230.356L1107.68 235H1107.1L1105.03 230.347V235H1104.21V228.772H1105.09L1107.39 233.92L1109.7 228.772H1110.57ZM1114.11 235.081C1113.65 235.081 1113.23 234.976 1112.85 234.766C1112.48 234.556 1112.18 234.259 1111.97 233.875C1111.76 233.485 1111.65 233.035 1111.65 232.525C1111.65 232.021 1111.76 231.577 1111.98 231.193C1112.2 230.803 1112.5 230.506 1112.88 230.302C1113.25 230.092 1113.68 229.987 1114.15 229.987C1114.61 229.987 1115.04 230.092 1115.41 230.302C1115.79 230.506 1116.09 230.8 1116.31 231.184C1116.53 231.568 1116.64 232.015 1116.64 232.525C1116.64 233.035 1116.52 233.485 1116.3 233.875C1116.07 234.259 1115.77 234.556 1115.39 234.766C1115 234.976 1114.58 235.081 1114.11 235.081ZM1114.11 234.361C1114.4 234.361 1114.68 234.292 1114.94 234.154C1115.2 234.016 1115.4 233.809 1115.56 233.533C1115.72 233.257 1115.8 232.921 1115.8 232.525C1115.8 232.129 1115.72 231.793 1115.57 231.517C1115.41 231.241 1115.21 231.037 1114.96 230.905C1114.7 230.767 1114.43 230.698 1114.14 230.698C1113.84 230.698 1113.56 230.767 1113.31 230.905C1113.06 231.037 1112.86 231.241 1112.71 231.517C1112.56 231.793 1112.49 232.129 1112.49 232.525C1112.49 232.927 1112.56 233.266 1112.71 233.542C1112.86 233.818 1113.05 234.025 1113.3 234.163C1113.55 234.295 1113.82 234.361 1114.11 234.361ZM1118.53 230.869C1118.68 230.587 1118.88 230.368 1119.15 230.212C1119.42 230.056 1119.74 229.978 1120.13 229.978V230.824H1119.91C1118.99 230.824 1118.53 231.322 1118.53 232.318V235H1117.72V230.068H1118.53V230.869ZM1125.57 232.345C1125.57 232.501 1125.56 232.666 1125.55 232.84H1121.6C1121.63 233.326 1121.8 233.707 1122.1 233.983C1122.4 234.253 1122.77 234.388 1123.21 234.388C1123.56 234.388 1123.85 234.307 1124.09 234.145C1124.33 233.977 1124.5 233.755 1124.59 233.479H1125.47C1125.34 233.953 1125.08 234.34 1124.68 234.64C1124.29 234.934 1123.79 235.081 1123.21 235.081C1122.74 235.081 1122.32 234.976 1121.95 234.766C1121.58 234.556 1121.29 234.259 1121.08 233.875C1120.87 233.485 1120.77 233.035 1120.77 232.525C1120.77 232.015 1120.87 231.568 1121.07 231.184C1121.28 230.8 1121.56 230.506 1121.93 230.302C1122.3 230.092 1122.73 229.987 1123.21 229.987C1123.67 229.987 1124.09 230.089 1124.45 230.293C1124.81 230.497 1125.08 230.779 1125.28 231.139C1125.47 231.493 1125.57 231.895 1125.57 232.345ZM1124.73 232.174C1124.73 231.862 1124.66 231.595 1124.52 231.373C1124.38 231.145 1124.19 230.974 1123.95 230.86C1123.72 230.74 1123.46 230.68 1123.17 230.68C1122.76 230.68 1122.4 230.812 1122.11 231.076C1121.82 231.34 1121.65 231.706 1121.61 232.174H1124.73ZM1254.64 234.334H1256.84V235H1253.82V228.727H1254.64V234.334ZM1262.21 232.345C1262.21 232.501 1262.2 232.666 1262.18 232.84H1258.24C1258.27 233.326 1258.43 233.707 1258.73 233.983C1259.04 234.253 1259.41 234.388 1259.84 234.388C1260.19 234.388 1260.49 234.307 1260.72 234.145C1260.96 233.977 1261.13 233.755 1261.23 233.479H1262.11C1261.98 233.953 1261.71 234.34 1261.32 234.64C1260.92 234.934 1260.43 235.081 1259.84 235.081C1259.37 235.081 1258.95 234.976 1258.58 234.766C1258.21 234.556 1257.93 234.259 1257.72 233.875C1257.51 233.485 1257.4 233.035 1257.4 232.525C1257.4 232.015 1257.5 231.568 1257.71 231.184C1257.91 230.8 1258.2 230.506 1258.56 230.302C1258.93 230.092 1259.36 229.987 1259.84 229.987C1260.31 229.987 1260.72 230.089 1261.08 230.293C1261.44 230.497 1261.72 230.779 1261.91 231.139C1262.11 231.493 1262.21 231.895 1262.21 232.345ZM1261.36 232.174C1261.36 231.862 1261.29 231.595 1261.15 231.373C1261.02 231.145 1260.83 230.974 1260.59 230.86C1260.35 230.74 1260.09 230.68 1259.8 230.68C1259.39 230.68 1259.04 230.812 1258.74 231.076C1258.45 231.34 1258.29 231.706 1258.25 232.174H1261.36ZM1265.03 235.081C1264.66 235.081 1264.32 235.018 1264.02 234.892C1263.72 234.76 1263.48 234.58 1263.31 234.352C1263.13 234.118 1263.04 233.851 1263.02 233.551H1263.86C1263.89 233.797 1264 233.998 1264.21 234.154C1264.42 234.31 1264.69 234.388 1265.03 234.388C1265.34 234.388 1265.58 234.319 1265.76 234.181C1265.94 234.043 1266.03 233.869 1266.03 233.659C1266.03 233.443 1265.94 233.284 1265.75 233.182C1265.55 233.074 1265.26 232.969 1264.85 232.867C1264.49 232.771 1264.19 232.675 1263.95 232.579C1263.73 232.477 1263.53 232.33 1263.36 232.138C1263.2 231.94 1263.12 231.682 1263.12 231.364C1263.12 231.112 1263.19 230.881 1263.34 230.671C1263.49 230.461 1263.71 230.296 1263.98 230.176C1264.26 230.05 1264.57 229.987 1264.93 229.987C1265.47 229.987 1265.91 230.125 1266.25 230.401C1266.59 230.677 1266.77 231.055 1266.79 231.535H1265.97C1265.95 231.277 1265.85 231.07 1265.66 230.914C1265.47 230.758 1265.22 230.68 1264.9 230.68C1264.61 230.68 1264.37 230.743 1264.2 230.869C1264.02 230.995 1263.94 231.16 1263.94 231.364C1263.94 231.526 1263.99 231.661 1264.09 231.769C1264.2 231.871 1264.33 231.955 1264.49 232.021C1264.65 232.081 1264.87 232.15 1265.15 232.228C1265.51 232.324 1265.79 232.42 1266.02 232.516C1266.24 232.606 1266.43 232.744 1266.58 232.93C1266.74 233.116 1266.83 233.359 1266.83 233.659C1266.83 233.929 1266.76 234.172 1266.61 234.388C1266.46 234.604 1266.25 234.775 1265.97 234.901C1265.7 235.021 1265.39 235.081 1265.03 235.081ZM1269.74 235.081C1269.36 235.081 1269.02 235.018 1268.72 234.892C1268.42 234.76 1268.18 234.58 1268.01 234.352C1267.83 234.118 1267.74 233.851 1267.72 233.551H1268.57C1268.59 233.797 1268.7 233.998 1268.91 234.154C1269.12 234.31 1269.39 234.388 1269.73 234.388C1270.04 234.388 1270.29 234.319 1270.47 234.181C1270.65 234.043 1270.74 233.869 1270.74 233.659C1270.74 233.443 1270.64 233.284 1270.45 233.182C1270.26 233.074 1269.96 232.969 1269.56 232.867C1269.19 232.771 1268.89 232.675 1268.66 232.579C1268.43 232.477 1268.23 232.33 1268.06 232.138C1267.9 231.94 1267.82 231.682 1267.82 231.364C1267.82 231.112 1267.89 230.881 1268.04 230.671C1268.19 230.461 1268.41 230.296 1268.68 230.176C1268.96 230.05 1269.27 229.987 1269.63 229.987C1270.17 229.987 1270.62 230.125 1270.95 230.401C1271.29 230.677 1271.47 231.055 1271.49 231.535H1270.67C1270.65 231.277 1270.55 231.07 1270.36 230.914C1270.17 230.758 1269.92 230.68 1269.6 230.68C1269.31 230.68 1269.07 230.743 1268.9 230.869C1268.73 230.995 1268.64 231.16 1268.64 231.364C1268.64 231.526 1268.69 231.661 1268.79 231.769C1268.9 231.871 1269.03 231.955 1269.19 232.021C1269.35 232.081 1269.57 232.15 1269.85 232.228C1270.21 232.324 1270.5 232.42 1270.72 232.516C1270.94 232.606 1271.13 232.744 1271.28 232.93C1271.45 233.116 1271.53 233.359 1271.54 233.659C1271.54 233.929 1271.46 234.172 1271.31 234.388C1271.16 234.604 1270.95 234.775 1270.67 234.901C1270.4 235.021 1270.09 235.081 1269.74 235.081Z" fill="black"/>
</svg>
