<svg width="18" height="20" viewBox="0 0 18 20" fill="none" xmlns="http://www.w3.org/2000/svg">
<path fill-rule="evenodd" clip-rule="evenodd" d="M8.80772 2.1582C8.46673 2.1582 8.16375 2.21782 7.97034 2.30442L7.96841 2.30529L2.55856 4.70763C1.84846 5.02091 1.7998 5.30434 1.7998 5.33445C1.7998 5.36456 1.84846 5.648 2.55856 5.96128L2.56008 5.96195L7.97035 8.36448C8.16375 8.45108 8.46673 8.5107 8.80772 8.5107C9.14871 8.5107 9.45169 8.45108 9.6451 8.36448L9.64703 8.36362L15.0554 5.96195L15.0569 5.96128C15.767 5.648 15.8156 5.36456 15.8156 5.33445C15.8156 5.30434 15.767 5.02091 15.0569 4.70763L9.64703 2.30529L9.6451 2.30442C9.45169 2.21782 9.14871 2.1582 8.80772 2.1582ZM10.206 1.04902C9.78543 0.860956 9.2776 0.783203 8.80772 0.783203C8.33784 0.783203 7.83002 0.860956 7.40946 1.04902C7.40911 1.04918 7.40877 1.04933 7.40843 1.04948L2.00355 3.44961C2.00331 3.44972 2.00379 3.44951 2.00355 3.44961C1.15563 3.82387 0.424805 4.45273 0.424805 5.33445C0.424805 6.21614 1.15485 6.84467 2.00273 7.21893C2.00246 7.21881 2.00301 7.21905 2.00273 7.21893L7.40843 9.61942C7.40882 9.6196 7.40921 9.61977 7.4096 9.61995C7.83013 9.80797 8.3379 9.8857 8.80772 9.8857C9.27757 9.8857 9.78536 9.80796 10.2059 9.61992C10.2063 9.61975 10.2066 9.61959 10.207 9.61942L15.6119 7.21929C15.6117 7.2194 15.6121 7.21919 15.6119 7.21929C16.4598 6.84503 17.1906 6.21618 17.1906 5.33445C17.1906 4.4527 16.4605 3.82415 15.6125 3.44989C15.6123 3.4498 15.6127 3.44999 15.6125 3.44989L10.207 1.04948C10.2067 1.04933 10.2063 1.04918 10.206 1.04902Z" fill="white"/>
<path fill-rule="evenodd" clip-rule="evenodd" d="M0.75 8.396C1.1297 8.396 1.4375 8.7038 1.4375 9.0835C1.4375 9.30661 1.52576 9.59307 1.70324 9.86585C1.88071 10.1386 2.10673 10.3352 2.31104 10.4254L2.31273 10.4262L8.5356 13.1939C8.53537 13.1938 8.53582 13.194 8.5356 13.1939C8.83672 13.3269 9.174 13.3249 9.45986 13.1959L9.46311 13.1945L15.6873 10.4262L15.689 10.4254C15.8933 10.3352 16.1193 10.1386 16.2968 9.86585C16.4742 9.59307 16.5625 9.30661 16.5625 9.0835C16.5625 8.7038 16.8703 8.396 17.25 8.396C17.6297 8.396 17.9375 8.7038 17.9375 9.0835C17.9375 9.63039 17.737 10.1735 17.4493 10.6157C17.1617 11.0577 16.7463 11.4614 16.2451 11.6829C16.2449 11.683 16.2454 11.6828 16.2451 11.6829L10.0251 14.4494C10.0245 14.4497 10.0239 14.4499 10.0233 14.4502C9.37481 14.742 8.63083 14.7395 7.9794 14.4514L1.75563 11.6832C1.75532 11.6831 1.755 11.683 1.75469 11.6828C1.25359 11.4613 0.838273 11.0577 0.550718 10.6157C0.26299 10.1735 0.0625 9.63039 0.0625 9.0835C0.0625 8.7038 0.370304 8.396 0.75 8.396Z" fill="white"/>
<path fill-rule="evenodd" clip-rule="evenodd" d="M0.75 12.9795C1.1297 12.9795 1.4375 13.2873 1.4375 13.667C1.4375 14.2452 1.77937 14.771 2.31341 15.01C2.31324 15.0099 2.31358 15.01 2.31341 15.01L8.5356 17.7774C8.53537 17.7773 8.53582 17.7775 8.5356 17.7774C8.83672 17.9104 9.174 17.9084 9.45986 17.7794L9.46311 17.778L15.6861 15.0102C15.6859 15.0103 15.6863 15.0101 15.6861 15.0102C16.2201 14.7712 16.5625 14.2452 16.5625 13.667C16.5625 13.2873 16.8703 12.9795 17.25 12.9795C17.6297 12.9795 17.9375 13.2873 17.9375 13.667C17.9375 14.7936 17.2713 15.8077 16.2473 16.2655L16.2461 16.266L10.0251 19.0329C10.0245 19.0331 10.0239 19.0334 10.0233 19.0337C9.37481 19.3255 8.63083 19.323 7.9794 19.0349L1.75274 16.2655C0.728744 15.8077 0.0625 14.7936 0.0625 13.667C0.0625 13.2873 0.370304 12.9795 0.75 12.9795Z" fill="white"/>
</svg>
