<svg width="26" height="28" viewBox="0 0 26 28" fill="none" xmlns="http://www.w3.org/2000/svg">
<g filter="url(#filter0_d_138_2303)">
<path fill-rule="evenodd" clip-rule="evenodd" d="M12.8077 2.1582C12.4667 2.1582 12.1638 2.21782 11.9703 2.30442L11.9684 2.30529L6.55856 4.70763C5.84846 5.02091 5.7998 5.30434 5.7998 5.33445C5.7998 5.36456 5.84846 5.648 6.55856 5.96128L6.56008 5.96195L11.9703 8.36448C12.1638 8.45108 12.4667 8.5107 12.8077 8.5107C13.1487 8.5107 13.4517 8.45108 13.6451 8.36448L13.647 8.36362L19.0554 5.96195L19.0569 5.96128C19.767 5.648 19.8156 5.36456 19.8156 5.33445C19.8156 5.30434 19.767 5.02091 19.0569 4.70763L13.647 2.30529L13.6451 2.30442C13.4517 2.21782 13.1487 2.1582 12.8077 2.1582ZM14.206 1.04902C13.7854 0.860956 13.2776 0.783203 12.8077 0.783203C12.3378 0.783203 11.83 0.860956 11.4095 1.04902C11.4091 1.04918 11.4088 1.04933 11.4084 1.04948L6.00355 3.44961C6.00331 3.44972 6.00379 3.44951 6.00355 3.44961C5.15563 3.82387 4.4248 4.45273 4.4248 5.33445C4.4248 6.21614 5.15485 6.84467 6.00273 7.21893C6.00246 7.21881 6.00301 7.21905 6.00273 7.21893L11.4084 9.61942C11.4088 9.6196 11.4092 9.61977 11.4096 9.61995C11.8301 9.80797 12.3379 9.8857 12.8077 9.8857C13.2776 9.8857 13.7854 9.80796 14.2059 9.61992C14.2063 9.61975 14.2066 9.61959 14.207 9.61942L19.6119 7.21929C19.6117 7.2194 19.6121 7.21919 19.6119 7.21929C20.4598 6.84503 21.1906 6.21618 21.1906 5.33445C21.1906 4.4527 20.4605 3.82415 19.6125 3.44989C19.6123 3.4498 19.6127 3.44999 19.6125 3.44989L14.207 1.04948C14.2067 1.04933 14.2063 1.04918 14.206 1.04902Z" fill="white"/>
<path fill-rule="evenodd" clip-rule="evenodd" d="M4.75 8.396C5.1297 8.396 5.4375 8.7038 5.4375 9.0835C5.4375 9.30661 5.52576 9.59307 5.70324 9.86585C5.88071 10.1386 6.10673 10.3352 6.31104 10.4254L6.31273 10.4262L12.5356 13.1939C12.5354 13.1938 12.5358 13.194 12.5356 13.1939C12.8367 13.3269 13.174 13.3249 13.4599 13.1959L13.4631 13.1945L19.6873 10.4262L19.689 10.4254C19.8933 10.3352 20.1193 10.1386 20.2968 9.86585C20.4742 9.59307 20.5625 9.30661 20.5625 9.0835C20.5625 8.7038 20.8703 8.396 21.25 8.396C21.6297 8.396 21.9375 8.7038 21.9375 9.0835C21.9375 9.63039 21.737 10.1735 21.4493 10.6157C21.1617 11.0577 20.7463 11.4614 20.2451 11.6829C20.2449 11.683 20.2454 11.6828 20.2451 11.6829L14.0251 14.4494C14.0245 14.4497 14.0239 14.4499 14.0233 14.4502C13.3748 14.742 12.6308 14.7395 11.9794 14.4514L5.75563 11.6832C5.75532 11.6831 5.755 11.683 5.75469 11.6828C5.25359 11.4613 4.83827 11.0577 4.55072 10.6157C4.26299 10.1735 4.0625 9.63039 4.0625 9.0835C4.0625 8.7038 4.3703 8.396 4.75 8.396Z" fill="white"/>
<path fill-rule="evenodd" clip-rule="evenodd" d="M4.75 12.9795C5.1297 12.9795 5.4375 13.2873 5.4375 13.667C5.4375 14.2452 5.77937 14.771 6.31341 15.01C6.31324 15.0099 6.31358 15.01 6.31341 15.01L12.5356 17.7774C12.5354 17.7773 12.5358 17.7775 12.5356 17.7774C12.8367 17.9104 13.174 17.9084 13.4599 17.7794L13.4631 17.778L19.6861 15.0102C19.6859 15.0103 19.6863 15.0101 19.6861 15.0102C20.2201 14.7712 20.5625 14.2452 20.5625 13.667C20.5625 13.2873 20.8703 12.9795 21.25 12.9795C21.6297 12.9795 21.9375 13.2873 21.9375 13.667C21.9375 14.7936 21.2713 15.8077 20.2473 16.2655L20.2461 16.266L14.0251 19.0329C14.0245 19.0331 14.0239 19.0334 14.0233 19.0337C13.3748 19.3255 12.6308 19.323 11.9794 19.0349L5.75274 16.2655C4.72874 15.8077 4.0625 14.7936 4.0625 13.667C4.0625 13.2873 4.3703 12.9795 4.75 12.9795Z" fill="white"/>
</g>
<defs>
<filter id="filter0_d_138_2303" x="0.0625" y="0.783203" width="25.875" height="26.4688" filterUnits="userSpaceOnUse" color-interpolation-filters="sRGB">
<feFlood flood-opacity="0" result="BackgroundImageFix"/>
<feColorMatrix in="SourceAlpha" type="matrix" values="0 0 0 0 0 0 0 0 0 0 0 0 0 0 0 0 0 0 127 0" result="hardAlpha"/>
<feOffset dy="4"/>
<feGaussianBlur stdDeviation="2"/>
<feComposite in2="hardAlpha" operator="out"/>
<feColorMatrix type="matrix" values="0 0 0 0 0 0 0 0 0 0 0 0 0 0 0 0 0 0 0.25 0"/>
<feBlend mode="normal" in2="BackgroundImageFix" result="effect1_dropShadow_138_2303"/>
<feBlend mode="normal" in="SourceGraphic" in2="effect1_dropShadow_138_2303" result="shape"/>
</filter>
</defs>
</svg>
