<svg width="20" height="20" viewBox="0 0 20 20" fill="none" xmlns="http://www.w3.org/2000/svg">
<path fill-rule="evenodd" clip-rule="evenodd" d="M12.0344 1.03486C12.6671 0.402122 13.5604 0.145996 14.583 0.145996H16.4163C17.439 0.145996 18.3322 0.402122 18.965 1.03486C19.5977 1.6676 19.8538 2.56085 19.8538 3.5835V5.41683C19.8538 6.43947 19.5977 7.33273 18.965 7.96547C18.3322 8.5982 17.439 8.85433 16.4163 8.85433H14.583C13.5604 8.85433 12.6671 8.5982 12.0344 7.96547C11.4016 7.33273 11.1455 6.43947 11.1455 5.41683V3.5835C11.1455 2.56085 11.4016 1.6676 12.0344 1.03486ZM13.0066 2.00713C12.7227 2.29106 12.5205 2.7728 12.5205 3.5835V5.41683C12.5205 6.22752 12.7227 6.70926 13.0066 6.99319C13.2906 7.27712 13.7723 7.47933 14.583 7.47933H16.4163C17.227 7.47933 17.7088 7.27712 17.9927 6.99319C18.2766 6.70926 18.4788 6.22752 18.4788 5.41683V3.5835C18.4788 2.7728 18.2766 2.29106 17.9927 2.00713C17.7088 1.7232 17.227 1.521 16.4163 1.521H14.583C13.7723 1.521 13.2906 1.7232 13.0066 2.00713Z" fill="#737791"/>
<path fill-rule="evenodd" clip-rule="evenodd" d="M1.03437 12.0349C1.66711 11.4021 2.56037 11.146 3.58301 11.146H5.41634C6.43898 11.146 7.33224 11.4021 7.96498 12.0349C8.59772 12.6676 8.85384 13.5609 8.85384 14.5835V16.4168C8.85384 17.4395 8.59772 18.3327 7.96498 18.9655C7.33224 19.5982 6.43898 19.8543 5.41634 19.8543H3.58301C2.56037 19.8543 1.66711 19.5982 1.03437 18.9655C0.401634 18.3327 0.145508 17.4395 0.145508 16.4168V14.5835C0.145508 13.5609 0.401634 12.6676 1.03437 12.0349ZM2.00664 13.0071C1.72272 13.2911 1.52051 13.7728 1.52051 14.5835V16.4168C1.52051 17.2275 1.72272 17.7093 2.00664 17.9932C2.29057 18.2771 2.77232 18.4793 3.58301 18.4793H5.41634C6.22703 18.4793 6.70878 18.2771 6.9927 17.9932C7.27663 17.7093 7.47884 17.2275 7.47884 16.4168V14.5835C7.47884 13.7728 7.27663 13.2911 6.9927 13.0071C6.70878 12.7232 6.22703 12.521 5.41634 12.521H3.58301C2.77232 12.521 2.29057 12.7232 2.00664 13.0071Z" fill="#737791"/>
<path fill-rule="evenodd" clip-rule="evenodd" d="M4.49967 1.521C2.85433 1.521 1.52051 2.85481 1.52051 4.50016C1.52051 6.14551 2.85433 7.47933 4.49967 7.47933C6.14502 7.47933 7.47884 6.14551 7.47884 4.50016C7.47884 2.85481 6.14502 1.521 4.49967 1.521ZM0.145508 4.50016C0.145508 2.09542 2.09493 0.145996 4.49967 0.145996C6.90441 0.145996 8.85384 2.09542 8.85384 4.50016C8.85384 6.9049 6.90441 8.85433 4.49967 8.85433C2.09493 8.85433 0.145508 6.9049 0.145508 4.50016Z" fill="#737791"/>
<path fill-rule="evenodd" clip-rule="evenodd" d="M15.4997 12.521C13.8543 12.521 12.5205 13.8548 12.5205 15.5002C12.5205 17.1455 13.8543 18.4793 15.4997 18.4793C17.145 18.4793 18.4788 17.1455 18.4788 15.5002C18.4788 13.8548 17.145 12.521 15.4997 12.521ZM11.1455 15.5002C11.1455 13.0954 13.0949 11.146 15.4997 11.146C17.9044 11.146 19.8538 13.0954 19.8538 15.5002C19.8538 17.9049 17.9044 19.8543 15.4997 19.8543C13.0949 19.8543 11.1455 17.9049 11.1455 15.5002Z" fill="#737791"/>
</svg>
