<svg width="32" height="32" viewBox="0 0 32 32" fill="none" xmlns="http://www.w3.org/2000/svg">
<mask id="mask0_138_2325" style="mask-type:luminance" maskUnits="userSpaceOnUse" x="0" y="0" width="32" height="32">
<rect width="32" height="32" fill="white"/>
</mask>
<g mask="url(#mask0_138_2325)">
<path fill-rule="evenodd" clip-rule="evenodd" d="M18.0349 7.03486C18.6676 6.40212 19.5609 6.146 20.5835 6.146H22.4168C23.4395 6.146 24.3327 6.40212 24.9655 7.03486C25.5982 7.6676 25.8543 8.56085 25.8543 9.5835V11.4168C25.8543 12.4395 25.5982 13.3327 24.9655 13.9655C24.3327 14.5982 23.4395 14.8543 22.4168 14.8543H20.5835C19.5609 14.8543 18.6676 14.5982 18.0349 13.9655C17.4021 13.3327 17.146 12.4395 17.146 11.4168V9.5835C17.146 8.56085 17.4021 7.6676 18.0349 7.03486ZM19.0071 8.00713C18.7232 8.29106 18.521 8.7728 18.521 9.5835V11.4168C18.521 12.2275 18.7232 12.7093 19.0071 12.9932C19.2911 13.2771 19.7728 13.4793 20.5835 13.4793H22.4168C23.2275 13.4793 23.7093 13.2771 23.9932 12.9932C24.2771 12.7093 24.4793 12.2275 24.4793 11.4168V9.5835C24.4793 8.7728 24.2771 8.29106 23.9932 8.00713C23.7093 7.7232 23.2275 7.521 22.4168 7.521H20.5835C19.7728 7.521 19.2911 7.7232 19.0071 8.00713Z" fill="#737791"/>
<path fill-rule="evenodd" clip-rule="evenodd" d="M7.03486 18.0349C7.6676 17.4021 8.56085 17.146 9.5835 17.146H11.4168C12.4395 17.146 13.3327 17.4021 13.9655 18.0349C14.5982 18.6676 14.8543 19.5609 14.8543 20.5835V22.4168C14.8543 23.4395 14.5982 24.3327 13.9655 24.9655C13.3327 25.5982 12.4395 25.8543 11.4168 25.8543H9.5835C8.56085 25.8543 7.6676 25.5982 7.03486 24.9655C6.40212 24.3327 6.146 23.4395 6.146 22.4168V20.5835C6.146 19.5609 6.40212 18.6676 7.03486 18.0349ZM8.00713 19.0071C7.7232 19.2911 7.521 19.7728 7.521 20.5835V22.4168C7.521 23.2275 7.7232 23.7093 8.00713 23.9932C8.29106 24.2771 8.7728 24.4793 9.5835 24.4793H11.4168C12.2275 24.4793 12.7093 24.2771 12.9932 23.9932C13.2771 23.7093 13.4793 23.2275 13.4793 22.4168V20.5835C13.4793 19.7728 13.2771 19.2911 12.9932 19.0071C12.7093 18.7232 12.2275 18.521 11.4168 18.521H9.5835C8.7728 18.521 8.29106 18.7232 8.00713 19.0071Z" fill="#737791"/>
<path fill-rule="evenodd" clip-rule="evenodd" d="M10.5002 7.521C8.85481 7.521 7.521 8.85481 7.521 10.5002C7.521 12.1455 8.85481 13.4793 10.5002 13.4793C12.1455 13.4793 13.4793 12.1455 13.4793 10.5002C13.4793 8.85481 12.1455 7.521 10.5002 7.521ZM6.146 10.5002C6.146 8.09542 8.09542 6.146 10.5002 6.146C12.9049 6.146 14.8543 8.09542 14.8543 10.5002C14.8543 12.9049 12.9049 14.8543 10.5002 14.8543C8.09542 14.8543 6.146 12.9049 6.146 10.5002Z" fill="#737791"/>
<path fill-rule="evenodd" clip-rule="evenodd" d="M21.5002 18.521C19.8548 18.521 18.521 19.8548 18.521 21.5002C18.521 23.1455 19.8548 24.4793 21.5002 24.4793C23.1455 24.4793 24.4793 23.1455 24.4793 21.5002C24.4793 19.8548 23.1455 18.521 21.5002 18.521ZM17.146 21.5002C17.146 19.0954 19.0954 17.146 21.5002 17.146C23.9049 17.146 25.8543 19.0954 25.8543 21.5002C25.8543 23.9049 23.9049 25.8543 21.5002 25.8543C19.0954 25.8543 17.146 23.9049 17.146 21.5002Z" fill="#737791"/>
</g>
</svg>
