<svg width="26" height="27" viewBox="0 0 26 27" fill="none" xmlns="http://www.w3.org/2000/svg">
<path fill-rule="evenodd" clip-rule="evenodd" d="M19.4172 7.521C18.4861 7.521 17.7397 8.26736 17.7397 9.1985C17.7397 10.0949 18.4292 10.8174 19.302 10.874C19.3752 10.8675 19.4501 10.8675 19.5234 10.874C20.3946 10.8174 21.0871 10.0959 21.0947 9.19604C21.0934 8.27345 20.3458 7.521 19.4172 7.521ZM16.3647 9.1985C16.3647 7.50797 17.7267 6.146 19.4172 6.146C21.1095 6.146 22.4697 7.51887 22.4697 9.1985V9.20341H22.4697C22.4579 10.8524 21.1599 12.1913 19.5246 12.2505C19.4872 12.2519 19.4498 12.2502 19.4127 12.2455C19.3756 12.2502 19.3381 12.2519 19.3007 12.2505C17.6663 12.1913 16.3647 10.8522 16.3647 9.1985Z" fill="#737791"/>
<path fill-rule="evenodd" clip-rule="evenodd" d="M18.4093 13.1138C19.8029 12.8697 21.392 13.1024 22.5472 13.869L22.5485 13.8698C23.3381 14.3962 23.824 15.159 23.824 16.0093C23.824 16.8597 23.3381 17.6225 22.5485 18.1489C21.4018 18.9163 19.8317 19.1482 18.4416 18.9148C18.0672 18.852 17.8146 18.4975 17.8774 18.123C17.9403 17.7485 18.2948 17.4959 18.6693 17.5588C19.7903 17.747 20.988 17.5392 21.7845 17.0056L21.7858 17.0048C22.2887 16.6695 22.449 16.2956 22.449 16.0093C22.449 15.7231 22.2888 15.3494 21.7864 15.0143C20.98 14.4795 19.7643 14.2724 18.6466 14.4682C18.2726 14.5337 17.9163 14.2836 17.8508 13.9096C17.7852 13.5356 18.0353 13.1793 18.4093 13.1138Z" fill="#737791"/>
<path fill-rule="evenodd" clip-rule="evenodd" d="M5.50244 9.1985C5.50244 7.51887 6.86268 6.146 8.55494 6.146C10.2455 6.146 11.6074 7.50797 11.6074 9.1985C11.6074 10.8522 10.3059 12.1913 8.6715 12.2505C8.63409 12.2519 8.59664 12.2502 8.55953 12.2455C8.52242 12.2502 8.48497 12.2519 8.44755 12.2505C6.81228 12.1913 5.51424 10.8524 5.50246 9.20341L5.50244 9.1985ZM6.87744 9.19605C6.88512 10.0959 7.57757 10.8174 8.44884 10.874C8.52204 10.8675 8.59702 10.8675 8.67022 10.874C9.54299 10.8174 10.2324 10.0949 10.2324 9.1985C10.2324 8.26736 9.48608 7.521 8.55494 7.521C7.62636 7.521 6.87876 8.27346 6.87744 9.19605Z" fill="#737791"/>
<path fill-rule="evenodd" clip-rule="evenodd" d="M6.18556 15.0143C6.992 14.4795 8.2076 14.2724 9.32536 14.4682C9.69936 14.5337 10.0557 14.2836 10.1212 13.9096C10.1867 13.5356 9.93662 13.1793 9.56262 13.1138C8.169 12.8697 6.57993 13.1024 5.4247 13.869L5.4247 13.869L5.42347 13.8698C4.63386 14.3962 4.14795 15.159 4.14795 16.0093C4.14795 16.8595 4.63361 17.6221 5.42285 18.1484C6.56956 18.9162 8.13995 19.1483 9.53032 18.9148C9.90477 18.852 10.1574 18.4975 10.0945 18.123C10.0316 17.7485 9.67712 17.4959 9.30266 17.5588C8.18161 17.747 6.98398 17.5392 6.18742 17.0056L6.18618 17.0048C5.68328 16.6695 5.52295 16.2956 5.52295 16.0093C5.52295 15.7231 5.68315 15.3494 6.18556 15.0143Z" fill="#737791"/>
<path fill-rule="evenodd" clip-rule="evenodd" d="M13.9172 14.3687C12.9861 14.3687 12.2397 15.115 12.2397 16.0462C12.2397 16.9426 12.9292 17.665 13.802 17.7217C13.8762 17.7151 13.9523 17.7152 14.0264 17.7219C14.8906 17.6724 15.587 16.9484 15.5947 16.0437C15.5934 15.1211 14.8458 14.3687 13.9172 14.3687ZM10.8647 16.0462C10.8647 14.3556 12.2267 12.9937 13.9172 12.9937C15.6095 12.9937 16.9697 14.3665 16.9697 16.0462V16.0511H16.9697C16.958 17.6956 15.6633 19.0507 14.0197 19.0984C13.9839 19.0994 13.9481 19.0976 13.9127 19.0931C13.8756 19.0979 13.8381 19.0996 13.8007 19.0982C12.1663 19.039 10.8647 17.6998 10.8647 16.0462Z" fill="#737791"/>
<path fill-rule="evenodd" clip-rule="evenodd" d="M14.0031 19.8823C15.0742 19.8823 16.1823 20.1491 17.0485 20.7265C17.8381 21.2529 18.324 22.0157 18.324 22.8661C18.324 23.7163 17.8383 24.479 17.0488 25.0054C16.179 25.5869 15.0713 25.8567 13.9997 25.8567C12.9281 25.8567 11.8204 25.587 10.9505 25.0054C10.1611 24.479 9.67529 23.7163 9.67529 22.8661C9.67529 22.0157 10.1612 21.2529 10.9508 20.7265L10.9525 20.7254L10.9525 20.7254C11.8224 20.1491 12.9318 19.8823 14.0031 19.8823ZM11.7127 21.8712C11.2105 22.2063 11.0503 22.5799 11.0503 22.8661C11.0503 23.1524 11.2106 23.5263 11.7135 23.8615L11.7143 23.8621C12.3111 24.2611 13.1373 24.4817 13.9997 24.4817C14.862 24.4817 15.6883 24.2611 16.285 23.8621L16.2858 23.8615C16.7887 23.5263 16.949 23.1524 16.949 22.8661C16.949 22.5798 16.7887 22.2059 16.2858 21.8706C15.6945 21.4764 14.8684 21.2573 14.0031 21.2573C13.1384 21.2573 12.3094 21.4761 11.7127 21.8712Z" fill="#737791"/>
</svg>
