<svg width="22" height="22" viewBox="0 0 22 22" fill="none" xmlns="http://www.w3.org/2000/svg">
<path fill-rule="evenodd" clip-rule="evenodd" d="M16.4177 2.521C15.4866 2.521 14.7402 3.26736 14.7402 4.1985C14.7402 5.09493 15.4297 5.81739 16.3025 5.874C16.3757 5.8675 16.4506 5.8675 16.5238 5.874C17.3951 5.81745 18.0876 5.09591 18.0952 4.19604C18.0939 3.27345 17.3463 2.521 16.4177 2.521ZM13.3652 4.1985C13.3652 2.50797 14.7272 1.146 16.4177 1.146C18.11 1.146 19.4702 2.51887 19.4702 4.1985V4.20341H19.4702C19.4584 5.85242 18.1604 7.1913 16.5251 7.25055C16.4877 7.2519 16.4503 7.2502 16.4131 7.24546C16.376 7.2502 16.3386 7.2519 16.3012 7.25055C14.6668 7.19133 13.3652 5.85219 13.3652 4.1985Z" fill="#737791"/>
<path fill-rule="evenodd" clip-rule="evenodd" d="M15.4098 8.1138C16.8034 7.86966 18.3925 8.10242 19.5477 8.86897L19.549 8.86979C20.3386 9.39619 20.8245 10.159 20.8245 11.0093C20.8245 11.8597 20.3386 12.6225 19.549 13.1489C18.4023 13.9163 16.8322 14.1482 15.4421 13.9148C15.0677 13.852 14.8151 13.4975 14.8779 13.123C14.9408 12.7485 15.2953 12.4959 15.6698 12.5588C16.7908 12.747 17.9884 12.5392 18.785 12.0056L18.7862 12.0048C19.2891 11.6695 19.4495 11.2956 19.4495 11.0093C19.4495 10.7231 19.2893 10.3494 18.7869 10.0143C17.9804 9.47947 16.7648 9.27236 15.6471 9.46817C15.2731 9.53369 14.9168 9.28362 14.8512 8.90962C14.7857 8.53562 15.0358 8.17932 15.4098 8.1138Z" fill="#737791"/>
<path fill-rule="evenodd" clip-rule="evenodd" d="M2.50293 4.1985C2.50293 2.51887 3.86317 1.146 5.55543 1.146C7.24596 1.146 8.60793 2.50797 8.60793 4.1985C8.60793 5.85219 7.3064 7.19133 5.67199 7.25055C5.63457 7.2519 5.59712 7.2502 5.56001 7.24546C5.5229 7.2502 5.48545 7.2519 5.44804 7.25055C3.81277 7.1913 2.51473 5.85242 2.50295 4.20341L2.50293 4.1985ZM3.87793 4.19605C3.88561 5.09591 4.57806 5.81745 5.44932 5.874C5.52253 5.8675 5.5975 5.8675 5.67071 5.874C6.54347 5.81739 7.23293 5.09493 7.23293 4.1985C7.23293 3.26736 6.48657 2.521 5.55543 2.521C4.62685 2.521 3.87925 3.27346 3.87793 4.19605Z" fill="#737791"/>
<path fill-rule="evenodd" clip-rule="evenodd" d="M3.18605 10.0143C3.99249 9.47946 5.20809 9.27236 6.32585 9.46817C6.69985 9.53369 7.05615 9.28362 7.12166 8.90962C7.18718 8.53562 6.93711 8.17932 6.56311 8.1138C5.16949 7.86966 3.58042 8.10242 2.42519 8.86897L2.42519 8.86897L2.42396 8.86979C1.63435 9.39619 1.14844 10.159 1.14844 11.0093C1.14844 11.8595 1.6341 12.6221 2.42333 13.1484C3.57005 13.9162 5.14044 14.1483 6.5308 13.9148C6.90526 13.852 7.15785 13.4975 7.09499 13.123C7.03212 12.7485 6.67761 12.4959 6.30315 12.5588C5.1821 12.747 3.98447 12.5392 3.18791 12.0056L3.18667 12.0048C2.68377 11.6695 2.52344 11.2956 2.52344 11.0093C2.52344 10.7231 2.68364 10.3494 3.18605 10.0143Z" fill="#737791"/>
<path fill-rule="evenodd" clip-rule="evenodd" d="M10.9177 9.36865C9.9866 9.36865 9.24023 10.115 9.24023 11.0462C9.24023 11.9426 9.92969 12.665 10.8025 12.7217C10.8767 12.7151 10.9527 12.7152 11.0269 12.7219C11.8911 12.6724 12.5875 11.9484 12.5952 11.0437C12.5939 10.1211 11.8463 9.36865 10.9177 9.36865ZM7.86523 11.0462C7.86523 9.35563 9.2272 7.99365 10.9177 7.99365C12.61 7.99365 13.9702 9.36653 13.9702 11.0462V11.0511H13.9702C13.9585 12.6956 12.6637 14.0507 11.0202 14.0984C10.9844 14.0994 10.9486 14.0976 10.9131 14.0931C10.876 14.0979 10.8386 14.0996 10.8012 14.0982C9.16676 14.039 7.86523 12.6998 7.86523 11.0462Z" fill="#737791"/>
<path fill-rule="evenodd" clip-rule="evenodd" d="M11.0036 14.8823C12.0747 14.8823 13.1828 15.1491 14.049 15.7265C14.8386 16.2529 15.3245 17.0157 15.3245 17.8661C15.3245 18.7163 14.8387 19.479 14.0493 20.0054C13.1794 20.5869 12.0717 20.8567 11.0002 20.8567C9.92858 20.8567 8.82088 20.587 7.951 20.0054C7.16157 19.479 6.67578 18.7163 6.67578 17.8661C6.67578 17.0157 7.1617 16.2529 7.9513 15.7265L7.95295 15.7254L7.95295 15.7254C8.82285 15.1491 9.93227 14.8823 11.0036 14.8823ZM8.7132 16.8712C8.21094 17.2063 8.05078 17.5799 8.05078 17.8661C8.05078 18.1524 8.21112 18.5263 8.71401 18.8615L8.71484 18.8621C9.31154 19.2611 10.1378 19.4817 11.0002 19.4817C11.8625 19.4817 12.6888 19.2611 13.2855 18.8621L13.2863 18.8615C13.7892 18.5263 13.9495 18.1524 13.9495 17.8661C13.9495 17.5798 13.7892 17.2059 13.2863 16.8706C12.695 16.4764 11.8689 16.2573 11.0036 16.2573C10.1389 16.2573 9.30991 16.4761 8.7132 16.8712Z" fill="#737791"/>
</svg>
