<svg width="22" height="21" viewBox="0 0 22 21" fill="none" xmlns="http://www.w3.org/2000/svg">
<path fill-rule="evenodd" clip-rule="evenodd" d="M16.4172 2.40625C15.4861 2.40625 14.7397 3.11869 14.7397 4.0075C14.7397 4.86318 15.4292 5.55281 16.302 5.60684C16.3752 5.60064 16.4501 5.60064 16.5234 5.60684C17.3946 5.55286 18.0871 4.86412 18.0947 4.00516C18.0934 3.12451 17.3458 2.40625 16.4172 2.40625ZM13.3647 4.0075C13.3647 2.39382 14.7267 1.09375 16.4172 1.09375C18.1095 1.09375 19.4697 2.40422 19.4697 4.0075V4.01219H19.4697C19.4579 5.58625 18.1599 6.86427 16.5246 6.92082C16.4872 6.92212 16.4498 6.92049 16.4127 6.91597C16.3756 6.92049 16.3381 6.92212 16.3007 6.92082C14.6663 6.8643 13.3647 5.58603 13.3647 4.0075Z" fill="white"/>
<path fill-rule="evenodd" clip-rule="evenodd" d="M15.4093 7.74484C16.8029 7.51179 18.392 7.73397 19.5472 8.46568L19.5485 8.46646C20.3381 8.96894 20.824 9.69703 20.824 10.5087C20.824 11.3205 20.3381 12.0486 19.5485 12.551C18.4018 13.2836 16.8317 13.505 15.4416 13.2822C15.0672 13.2222 14.8146 12.8838 14.8774 12.5263C14.9403 12.1689 15.2948 11.9278 15.6693 11.9878C16.7903 12.1675 17.988 11.969 18.7845 11.4598L18.7858 11.459C19.2887 11.1389 19.449 10.782 19.449 10.5087C19.449 10.2356 19.2888 9.87886 18.7864 9.55894C17.98 9.04843 16.7643 8.85073 15.6466 9.03765C15.2726 9.10019 14.9163 8.86148 14.8508 8.50448C14.7852 8.14748 15.0353 7.80738 15.4093 7.74484Z" fill="white"/>
<path fill-rule="evenodd" clip-rule="evenodd" d="M2.50244 4.0075C2.50244 2.40422 3.86268 1.09375 5.55494 1.09375C7.24547 1.09375 8.60744 2.39382 8.60744 4.0075C8.60744 5.58603 7.30592 6.8643 5.6715 6.92082C5.63409 6.92212 5.59664 6.92049 5.55953 6.91597C5.52242 6.92049 5.48497 6.92212 5.44755 6.92082C3.81228 6.86427 2.51424 5.58625 2.50246 4.01219L2.50244 4.0075ZM3.87744 4.00516C3.88512 4.86413 4.57757 5.55286 5.44884 5.60684C5.52204 5.60064 5.59702 5.60064 5.67022 5.60684C6.54299 5.55281 7.23244 4.86318 7.23244 4.0075C7.23244 3.11869 6.48608 2.40625 5.55494 2.40625C4.62636 2.40625 3.87876 3.12451 3.87744 4.00516Z" fill="white"/>
<path fill-rule="evenodd" clip-rule="evenodd" d="M3.18556 9.55893C3.992 9.04842 5.2076 8.85074 6.32536 9.03765C6.69936 9.10019 7.05566 8.86148 7.12118 8.50448C7.18669 8.14748 6.93662 7.80738 6.56262 7.74484C5.169 7.51179 3.57993 7.73397 2.4247 8.46568L2.4247 8.46568L2.42347 8.46646C1.63386 8.96894 1.14795 9.69704 1.14795 10.5087C1.14795 11.3202 1.63361 12.0482 2.42285 12.5506C3.56956 13.2835 5.13995 13.505 6.53032 13.2822C6.90477 13.2222 7.15737 12.8838 7.0945 12.5263C7.03164 12.1689 6.67712 11.9278 6.30266 11.9878C5.18161 12.1675 3.98398 11.969 3.18742 11.4598L3.18618 11.459C2.68328 11.1389 2.52295 10.782 2.52295 10.5087C2.52295 10.2356 2.68315 9.87885 3.18556 9.55893Z" fill="white"/>
<path fill-rule="evenodd" clip-rule="evenodd" d="M10.9172 8.94238C9.98611 8.94238 9.23975 9.65482 9.23975 10.5436C9.23975 11.3993 9.9292 12.0889 10.802 12.143C10.8762 12.1367 10.9523 12.1368 11.0264 12.1432C11.8906 12.0959 12.587 11.4049 12.5947 10.5413C12.5934 9.66064 11.8458 8.94238 10.9172 8.94238ZM7.86475 10.5436C7.86475 8.92995 9.22671 7.62988 10.9172 7.62988C12.6095 7.62988 13.9697 8.94036 13.9697 10.5436V10.5483H13.9697C13.958 12.1182 12.6632 13.4116 11.0197 13.4571C10.9839 13.4581 10.9481 13.4564 10.9127 13.4521C10.8756 13.4566 10.8381 13.4582 10.8007 13.457C9.16627 13.4004 7.86475 12.1222 7.86475 10.5436Z" fill="white"/>
<path fill-rule="evenodd" clip-rule="evenodd" d="M11.0031 14.2056C12.0742 14.2056 13.1823 14.4602 14.0485 15.0114C14.8381 15.5139 15.324 16.242 15.324 17.0537C15.324 17.8653 14.8383 18.5933 14.0488 19.0958C13.179 19.6509 12.0713 19.9084 10.9997 19.9084C9.92809 19.9084 8.82039 19.6509 7.95051 19.0958C7.16109 18.5933 6.67529 17.8653 6.67529 17.0537C6.67529 16.242 7.16121 15.5139 7.95081 15.0114L7.95246 15.0104L7.95247 15.0104C8.82236 14.4602 9.93178 14.2056 11.0031 14.2056ZM8.71271 16.104C8.21045 16.4239 8.05029 16.7806 8.05029 17.0537C8.05029 17.327 8.21063 17.6839 8.71352 18.0039L8.71435 18.0044C9.31105 18.3853 10.1373 18.5959 10.9997 18.5959C11.862 18.5959 12.6883 18.3853 13.285 18.0044L13.2858 18.0039C13.7887 17.6839 13.949 17.327 13.949 17.0537C13.949 16.7804 13.7887 16.4235 13.2858 16.1035C12.6945 15.7272 11.8684 15.5181 11.0031 15.5181C10.1384 15.5181 9.30942 15.7269 8.71271 16.104Z" fill="white"/>
</svg>
