<svg width="22" height="22" viewBox="0 0 22 22" fill="none" xmlns="http://www.w3.org/2000/svg">
<path fill-rule="evenodd" clip-rule="evenodd" d="M13.0346 2.03486C13.6674 1.40212 14.5606 1.146 15.5833 1.146H17.4166C18.4392 1.146 19.3325 1.40212 19.9652 2.03486C20.598 2.6676 20.8541 3.56085 20.8541 4.5835V6.41683C20.8541 7.43947 20.598 8.33273 19.9652 8.96547C19.3325 9.5982 18.4392 9.85433 17.4166 9.85433H15.5833C14.5606 9.85433 13.6674 9.5982 13.0346 8.96547C12.4019 8.33273 12.1458 7.43947 12.1458 6.41683V4.5835C12.1458 3.56085 12.4019 2.6676 13.0346 2.03486ZM14.0069 3.00713C13.723 3.29106 13.5208 3.7728 13.5208 4.5835V6.41683C13.5208 7.22752 13.723 7.70926 14.0069 7.99319C14.2908 8.27712 14.7726 8.47933 15.5833 8.47933H17.4166C18.2273 8.47933 18.709 8.27712 18.9929 7.99319C19.2769 7.70926 19.4791 7.22752 19.4791 6.41683V4.5835C19.4791 3.7728 19.2769 3.29106 18.9929 3.00713C18.709 2.7232 18.2273 2.521 17.4166 2.521H15.5833C14.7726 2.521 14.2908 2.7232 14.0069 3.00713Z" fill="#F1F1F1"/>
<path fill-rule="evenodd" clip-rule="evenodd" d="M2.03462 13.0349C2.66735 12.4021 3.56061 12.146 4.58325 12.146H6.41658C7.43923 12.146 8.33248 12.4021 8.96522 13.0349C9.59796 13.6676 9.85408 14.5609 9.85408 15.5835V17.4168C9.85408 18.4395 9.59796 19.3327 8.96522 19.9655C8.33248 20.5982 7.43923 20.8543 6.41658 20.8543H4.58325C3.56061 20.8543 2.66735 20.5982 2.03462 19.9655C1.40188 19.3327 1.14575 18.4395 1.14575 17.4168V15.5835C1.14575 14.5609 1.40188 13.6676 2.03462 13.0349ZM3.00689 14.0071C2.72296 14.2911 2.52075 14.7728 2.52075 15.5835V17.4168C2.52075 18.2275 2.72296 18.7093 3.00689 18.9932C3.29082 19.2771 3.77256 19.4793 4.58325 19.4793H6.41658C7.22728 19.4793 7.70902 19.2771 7.99295 18.9932C8.27688 18.7093 8.47908 18.2275 8.47908 17.4168V15.5835C8.47908 14.7728 8.27688 14.2911 7.99295 14.0071C7.70902 13.7232 7.22728 13.521 6.41658 13.521H4.58325C3.77256 13.521 3.29082 13.7232 3.00689 14.0071Z" fill="#F1F1F1"/>
<path fill-rule="evenodd" clip-rule="evenodd" d="M5.49992 2.521C3.85457 2.521 2.52075 3.85481 2.52075 5.50016C2.52075 7.14551 3.85457 8.47933 5.49992 8.47933C7.14527 8.47933 8.47908 7.14551 8.47908 5.50016C8.47908 3.85481 7.14527 2.521 5.49992 2.521ZM1.14575 5.50016C1.14575 3.09542 3.09518 1.146 5.49992 1.146C7.90466 1.146 9.85408 3.09542 9.85408 5.50016C9.85408 7.9049 7.90466 9.85433 5.49992 9.85433C3.09518 9.85433 1.14575 7.9049 1.14575 5.50016Z" fill="#F1F1F1"/>
<path fill-rule="evenodd" clip-rule="evenodd" d="M16.4999 13.521C14.8546 13.521 13.5208 14.8548 13.5208 16.5002C13.5208 18.1455 14.8546 19.4793 16.4999 19.4793C18.1453 19.4793 19.4791 18.1455 19.4791 16.5002C19.4791 14.8548 18.1453 13.521 16.4999 13.521ZM12.1458 16.5002C12.1458 14.0954 14.0952 12.146 16.4999 12.146C18.9047 12.146 20.8541 14.0954 20.8541 16.5002C20.8541 18.9049 18.9047 20.8543 16.4999 20.8543C14.0952 20.8543 12.1458 18.9049 12.1458 16.5002Z" fill="#F1F1F1"/>
</svg>
