<svg width="25" height="26" viewBox="0 0 25 26" fill="none" xmlns="http://www.w3.org/2000/svg">
<path fill-rule="evenodd" clip-rule="evenodd" d="M12.0003 4.521C9.84872 4.521 8.10449 6.26522 8.10449 8.41683C8.10449 10.5684 9.84872 12.3127 12.0003 12.3127C14.1519 12.3127 15.8962 10.5684 15.8962 8.41683C15.8962 6.26522 14.1519 4.521 12.0003 4.521ZM6.72949 8.41683C6.72949 5.50583 9.08932 3.146 12.0003 3.146C14.9113 3.146 17.2712 5.50583 17.2712 8.41683C17.2712 11.3278 14.9113 13.6877 12.0003 13.6877C9.08932 13.6877 6.72949 11.3278 6.72949 8.41683Z" fill="white"/>
<path fill-rule="evenodd" clip-rule="evenodd" d="M3.43848 22.1667C3.43848 18.1142 7.41417 15.0625 12.0001 15.0625C16.5861 15.0625 20.5618 18.1142 20.5618 22.1667C20.5618 22.5464 20.254 22.8542 19.8743 22.8542C19.4946 22.8542 19.1868 22.5464 19.1868 22.1667C19.1868 19.1241 16.1042 16.4375 12.0001 16.4375C7.89611 16.4375 4.81348 19.1241 4.81348 22.1667C4.81348 22.5464 4.50567 22.8542 4.12598 22.8542C3.74628 22.8542 3.43848 22.5464 3.43848 22.1667Z" fill="white"/>
</svg>
