<svg width="22" height="22" viewBox="0 0 22 22" fill="none" xmlns="http://www.w3.org/2000/svg">
<path fill-rule="evenodd" clip-rule="evenodd" d="M12.1445 18.3338C12.1445 17.701 11.6315 17.188 10.9987 17.188C10.3659 17.188 9.85286 17.701 9.85286 18.3338C9.85286 18.9666 10.3659 19.4797 10.9987 19.4797C11.6315 19.4797 12.1445 18.9666 12.1445 18.3338ZM10.9987 15.813C12.3909 15.813 13.5195 16.9416 13.5195 18.3338C13.5195 19.726 12.3909 20.8547 10.9987 20.8547C9.60648 20.8547 8.47786 19.726 8.47786 18.3338C8.47786 16.9416 9.60648 15.813 10.9987 15.813Z" fill="#737791"/>
<path fill-rule="evenodd" clip-rule="evenodd" d="M19.4775 18.3338C19.4775 17.701 18.9645 17.188 18.3317 17.188C17.6989 17.188 17.1859 17.701 17.1859 18.3338C17.1859 18.9666 17.6989 19.4797 18.3317 19.4797C18.9645 19.4797 19.4775 18.9666 19.4775 18.3338ZM18.3317 15.813C19.7239 15.813 20.8525 16.9416 20.8525 18.3338C20.8525 19.726 19.7239 20.8547 18.3317 20.8547C16.9395 20.8547 15.8109 19.726 15.8109 18.3338C15.8109 16.9416 16.9395 15.813 18.3317 15.813Z" fill="#737791"/>
<path fill-rule="evenodd" clip-rule="evenodd" d="M4.81055 18.3338C4.81055 17.701 4.29754 17.188 3.66471 17.188C3.03189 17.188 2.51888 17.701 2.51888 18.3338C2.51888 18.9666 3.03189 19.4797 3.66471 19.4797C4.29754 19.4797 4.81055 18.9666 4.81055 18.3338ZM3.66471 15.813C5.05693 15.813 6.18555 16.9416 6.18555 18.3338C6.18555 19.726 5.05693 20.8547 3.66471 20.8547C2.2725 20.8547 1.14388 19.726 1.14388 18.3338C1.14388 16.9416 2.2725 15.813 3.66471 15.813Z" fill="#737791"/>
<path fill-rule="evenodd" clip-rule="evenodd" d="M12.1445 3.66732C12.1445 3.03449 11.6315 2.52148 10.9987 2.52148C10.3659 2.52148 9.85286 3.03449 9.85286 3.66732C9.85286 4.30014 10.3659 4.81315 10.9987 4.81315C11.6315 4.81315 12.1445 4.30014 12.1445 3.66732ZM10.9987 1.14648C12.3909 1.14648 13.5195 2.2751 13.5195 3.66732C13.5195 5.05954 12.3909 6.18815 10.9987 6.18815C9.60648 6.18815 8.47786 5.05954 8.47786 3.66732C8.47786 2.2751 9.60648 1.14648 10.9987 1.14648Z" fill="#737791"/>
<path fill-rule="evenodd" clip-rule="evenodd" d="M10.998 4.81299C11.3777 4.81299 11.6855 5.12079 11.6855 5.50049L11.6855 16.5005C11.6855 16.8802 11.3777 17.188 10.998 17.188C10.6184 17.188 10.3105 16.8802 10.3105 16.5005L10.3105 5.50049C10.3105 5.12079 10.6184 4.81299 10.998 4.81299Z" fill="#737791"/>
<path fill-rule="evenodd" clip-rule="evenodd" d="M18.1307 10.2853C18.7634 10.9181 19.0195 11.8113 19.0195 12.834L19.0195 16.5007C19.0195 16.8803 18.7117 17.1882 18.332 17.1882C17.9523 17.1882 17.6445 16.8803 17.6445 16.5007L17.6445 12.834C17.6445 12.0233 17.4423 11.5415 17.1584 11.2576C16.8745 10.9737 16.3927 10.7715 15.582 10.7715L6.41537 10.7715C5.60467 10.7715 5.12293 10.9737 4.839 11.2576C4.55507 11.5415 4.35287 12.0233 4.35287 12.834L4.35286 16.5007C4.35286 16.8803 4.04506 17.1882 3.66536 17.1882C3.28567 17.1882 2.97786 16.8803 2.97786 16.5007L2.97787 12.834C2.97787 11.8113 3.23399 10.9181 3.86673 10.2853C4.49947 9.65261 5.39272 9.39648 6.41537 9.39648L15.582 9.39648C16.6047 9.39648 17.4979 9.65261 18.1307 10.2853Z" fill="#737791"/>
</svg>
