<svg width="56" height="56" viewBox="0 0 56 56" fill="none" xmlns="http://www.w3.org/2000/svg">
<rect width="56" height="56" rx="8" fill="url(#paint0_linear_138_2331)"/>
<path d="M22.3743 17.6277C21.2422 18.7807 21.2422 20.6466 22.3952 21.7997L24.911 24.3154C27.28 26.6845 27.28 30.542 24.911 32.911L20.2988 28.2988C19.1143 27.1143 18.5168 25.5524 18.5168 24.001C18.5168 22.4496 19.1143 20.8877 20.2988 19.7032L22.3428 17.6591C22.3533 17.6486 22.3638 17.6382 22.3743 17.6277Z" fill="url(#paint1_linear_138_2331)" stroke="white" stroke-width="2" stroke-miterlimit="10"/>
<path d="M24.387 23.7903L22.3953 21.7986C21.2422 20.6456 21.2318 18.7902 22.3743 17.6266C23.5064 16.5155 25.3094 16.5365 26.431 17.6581C26.9971 18.2241 27.2801 18.9684 27.2801 19.7021C27.2801 20.4359 26.9971 21.1802 26.431 21.7462L25.9593 22.2179" fill="url(#paint2_linear_138_2331)"/>
<path d="M24.387 23.7903L22.3953 21.7986C21.2422 20.6456 21.2318 18.7902 22.3743 17.6266C23.5064 16.5155 25.3094 16.5365 26.431 17.6581C26.9971 18.2241 27.2801 18.9684 27.2801 19.7021C27.2801 20.4359 26.9971 21.1802 26.431 21.7462L25.9593 22.2179" stroke="white" stroke-width="2" stroke-miterlimit="10"/>
<path d="M34.2714 38.2245C35.4035 37.0714 35.4035 35.2056 34.2504 34.0525L31.7346 31.5367C29.3656 29.1677 29.3656 25.3102 31.7346 22.9412L36.3469 27.5534C37.5314 28.7379 38.1289 30.2998 38.1289 31.8512C38.1289 33.4026 37.5314 34.9645 36.3469 36.149L34.3028 38.1931C34.2819 38.214 34.2714 38.2245 34.2714 38.2245Z" fill="url(#paint3_linear_138_2331)" stroke="white" stroke-width="2" stroke-miterlimit="10"/>
<path d="M32.2478 32.0715L34.2395 34.0632C35.3925 35.2163 35.403 37.0716 34.2604 38.2352C33.1283 39.3463 31.3254 39.3254 30.2037 38.2037C29.6377 37.6377 29.3547 36.8934 29.3547 36.1597C29.3547 35.4259 29.6377 34.6816 30.2037 34.1156L30.6859 33.6334" fill="url(#paint4_linear_138_2331)"/>
<path d="M32.2478 32.0715L34.2395 34.0632C35.3925 35.2163 35.403 37.0716 34.2604 38.2352C33.1283 39.3463 31.3254 39.3254 30.2037 38.2037C29.6377 37.6377 29.3547 36.8934 29.3547 36.1597C29.3547 35.4259 29.6377 34.6816 30.2037 34.1156L30.6859 33.6334" stroke="white" stroke-width="2" stroke-miterlimit="10"/>
<defs>
<linearGradient id="paint0_linear_138_2331" x1="0" y1="28" x2="56" y2="28" gradientUnits="userSpaceOnUse">
<stop stop-color="#232324"/>
<stop offset="0.79" stop-color="#0F2E59"/>
<stop offset="0.98" stop-color="#131313"/>
</linearGradient>
<linearGradient id="paint1_linear_138_2331" x1="20.456" y1="28.456" x2="26.8293" y2="22.0827" gradientUnits="userSpaceOnUse">
<stop stop-color="#232324"/>
<stop offset="0.79" stop-color="#0F2E59"/>
<stop offset="0.98" stop-color="#131313"/>
</linearGradient>
<linearGradient id="paint2_linear_138_2331" x1="22.3429" y1="21.7462" x2="26.431" y2="17.6581" gradientUnits="userSpaceOnUse">
<stop stop-color="#232324"/>
<stop offset="0.79" stop-color="#0F2E59"/>
<stop offset="0.98" stop-color="#131313"/>
</linearGradient>
<linearGradient id="paint3_linear_138_2331" x1="29.8164" y1="33.7695" x2="36.1897" y2="27.3962" gradientUnits="userSpaceOnUse">
<stop stop-color="#232324"/>
<stop offset="0.79" stop-color="#0F2E59"/>
<stop offset="0.98" stop-color="#131313"/>
</linearGradient>
<linearGradient id="paint4_linear_138_2331" x1="30.2037" y1="38.2037" x2="34.2919" y2="34.1156" gradientUnits="userSpaceOnUse">
<stop stop-color="#232324"/>
<stop offset="0.79" stop-color="#0F2E59"/>
<stop offset="0.98" stop-color="#131313"/>
</linearGradient>
</defs>
</svg>
