<svg width="199" height="33" viewBox="0 0 199 33" fill="none" xmlns="http://www.w3.org/2000/svg">
<path d="M48.8 24V7.512H55.688C57.48 7.512 58.992 7.808 60.224 8.4C61.472 8.992 62.416 9.896 63.056 11.112C63.712 12.312 64.04 13.856 64.04 15.744C64.04 17.616 63.712 19.168 63.056 20.4C62.416 21.616 61.472 22.52 60.224 23.112C58.992 23.704 57.48 24 55.688 24H48.8ZM53.096 20.64H55.64C56.312 20.64 56.896 20.544 57.392 20.352C57.888 20.16 58.304 19.88 58.64 19.512C58.976 19.144 59.224 18.688 59.384 18.144C59.544 17.6 59.624 16.976 59.624 16.272V15.264C59.624 14.544 59.544 13.912 59.384 13.368C59.224 12.824 58.976 12.368 58.64 12C58.304 11.632 57.888 11.352 57.392 11.16C56.896 10.968 56.312 10.872 55.64 10.872H53.096V20.64ZM65.9572 24V7.512H75.5332C76.7492 7.512 77.7652 7.744 78.5812 8.208C79.3972 8.656 80.0052 9.28 80.4052 10.08C80.8212 10.864 81.0292 11.744 81.0292 12.72C81.0292 13.776 80.7812 14.72 80.2852 15.552C79.8052 16.368 79.1252 17.008 78.2452 17.472L81.5572 24H76.7572L74.0212 18.192H70.2532V24H65.9572ZM70.2532 15H74.6932C75.2852 15 75.7572 14.808 76.1092 14.424C76.4772 14.024 76.6612 13.496 76.6612 12.84C76.6612 12.408 76.5812 12.04 76.4212 11.736C76.2612 11.432 76.0372 11.2 75.7492 11.04C75.4612 10.864 75.1092 10.776 74.6932 10.776H70.2532V15ZM82.9972 24V7.512H87.2932V24H82.9972ZM94.3996 24L88.4716 7.512H93.0796L96.1036 16.824C96.1676 17.016 96.2476 17.272 96.3436 17.592C96.4396 17.896 96.5356 18.216 96.6316 18.552C96.7436 18.872 96.8316 19.16 96.8956 19.416H97.0636C97.1436 19.176 97.2236 18.904 97.3036 18.6C97.3996 18.28 97.4956 17.968 97.5916 17.664C97.6876 17.344 97.7676 17.072 97.8316 16.848L100.856 7.512H105.296L99.3916 24H94.3996ZM106.508 24V7.512H120.116V10.872H110.804V13.968H118.94V17.256H110.804V20.64H120.284V24H106.508ZM128.593 24.288C127.697 24.288 126.833 24.2 126.001 24.024C125.185 23.848 124.457 23.568 123.817 23.184C123.177 22.784 122.665 22.272 122.281 21.648C121.913 21.024 121.729 20.256 121.729 19.344C121.729 19.264 121.729 19.184 121.729 19.104C121.745 19.024 121.753 18.944 121.753 18.864H124.057C124.057 18.912 124.049 18.992 124.033 19.104C124.033 19.2 124.033 19.288 124.033 19.368C124.033 20.008 124.225 20.552 124.609 21C124.993 21.448 125.521 21.784 126.193 22.008C126.881 22.216 127.657 22.32 128.521 22.32C128.905 22.32 129.305 22.296 129.721 22.248C130.153 22.2 130.561 22.12 130.945 22.008C131.345 21.88 131.697 21.72 132.001 21.528C132.321 21.32 132.569 21.072 132.745 20.784C132.937 20.48 133.033 20.112 133.033 19.68C133.033 19.136 132.873 18.688 132.553 18.336C132.249 17.968 131.841 17.672 131.329 17.448C130.817 17.208 130.233 17 129.577 16.824C128.937 16.632 128.273 16.448 127.585 16.272C126.897 16.096 126.225 15.896 125.569 15.672C124.929 15.432 124.353 15.144 123.841 14.808C123.329 14.456 122.913 14.024 122.593 13.512C122.289 13 122.137 12.376 122.137 11.64C122.137 10.952 122.273 10.336 122.545 9.792C122.833 9.248 123.249 8.792 123.793 8.424C124.353 8.04 125.041 7.752 125.857 7.56C126.673 7.352 127.609 7.248 128.665 7.248C129.529 7.248 130.329 7.344 131.065 7.536C131.817 7.712 132.473 7.992 133.033 8.376C133.609 8.744 134.057 9.216 134.377 9.792C134.697 10.368 134.857 11.064 134.857 11.88V12.168H132.601V11.808C132.601 11.264 132.433 10.8 132.097 10.416C131.761 10.032 131.297 9.736 130.705 9.528C130.129 9.32 129.473 9.216 128.737 9.216C127.777 9.216 126.977 9.312 126.337 9.504C125.697 9.68 125.217 9.944 124.897 10.296C124.593 10.632 124.441 11.016 124.441 11.448C124.441 11.944 124.593 12.36 124.897 12.696C125.217 13.032 125.633 13.312 126.145 13.536C126.657 13.744 127.241 13.936 127.897 14.112C128.553 14.288 129.217 14.472 129.889 14.664C130.577 14.84 131.241 15.048 131.881 15.288C132.537 15.512 133.121 15.8 133.633 16.152C134.161 16.488 134.577 16.92 134.881 17.448C135.185 17.96 135.337 18.592 135.337 19.344C135.337 20.512 135.049 21.464 134.473 22.2C133.897 22.92 133.105 23.448 132.097 23.784C131.089 24.12 129.921 24.288 128.593 24.288ZM137.734 24V7.536H140.014V24H137.734ZM150.588 24.288C147.932 24.288 145.908 23.592 144.516 22.2C143.14 20.808 142.452 18.664 142.452 15.768C142.452 13.88 142.772 12.304 143.412 11.04C144.052 9.776 144.996 8.832 146.244 8.208C147.492 7.568 149.012 7.248 150.804 7.248C151.924 7.248 152.94 7.368 153.852 7.608C154.764 7.848 155.548 8.216 156.204 8.712C156.876 9.192 157.388 9.8 157.74 10.536C158.108 11.272 158.292 12.144 158.292 13.152H155.964C155.964 12.448 155.836 11.848 155.58 11.352C155.324 10.84 154.956 10.424 154.476 10.104C154.012 9.784 153.468 9.56 152.844 9.432C152.22 9.288 151.556 9.216 150.852 9.216C149.892 9.216 149.036 9.336 148.284 9.576C147.532 9.816 146.9 10.192 146.388 10.704C145.876 11.216 145.484 11.872 145.212 12.672C144.94 13.472 144.804 14.424 144.804 15.528V16.032C144.804 17.52 145.028 18.728 145.476 19.656C145.94 20.584 146.604 21.264 147.468 21.696C148.332 22.112 149.372 22.32 150.588 22.32C151.82 22.32 152.836 22.152 153.636 21.816C154.436 21.464 155.028 20.936 155.412 20.232C155.812 19.528 156.012 18.64 156.012 17.568V17.28H150.204V15.336H158.316V24H156.588L156.348 21.912C155.916 22.472 155.404 22.928 154.812 23.28C154.22 23.632 153.564 23.888 152.844 24.048C152.14 24.208 151.388 24.288 150.588 24.288ZM161.314 24V7.536H163.594V14.592H172.546V7.536H174.85V24H172.546V16.584H163.594V24H161.314ZM182.058 24V9.528H176.418V7.536H190.026V9.528H184.338V24H182.058Z" fill="#192A3E"/>
<g clip-path="url(#clip0_28_3364)">
<path d="M26.5288 32.9757C25.1549 31.5741 23.9808 30.4105 22.8461 29.2117C21.0288 27.29 21.0595 24.3635 22.89 22.4594C24.6502 20.6281 27.6548 20.4915 29.5839 22.2126C31.6602 24.0638 31.8555 27.1314 29.8297 29.3439C28.7412 30.5339 27.6613 31.7306 26.5288 32.9757ZM27.0556 25.7452C27.2641 26.1441 27.0183 26.4063 26.7264 26.5584C26.4454 26.7061 26.0899 26.6972 25.8463 26.435C25.4798 26.0405 25.6268 25.6284 25.8836 25.2207C25.5895 25.2207 25.3173 25.2207 25.0474 25.2207C24.3714 25.2141 23.6954 25.2185 23.0195 25.1987C22.7341 25.1899 22.6222 25.2604 22.6003 25.5777C22.4598 27.6448 24.0905 29.5885 26.057 29.6657C28.3702 29.756 30.1041 28.1341 30.1348 25.8973C30.1436 25.3155 29.9658 25.1348 29.3996 25.1921C28.8355 25.2494 28.2605 25.2207 27.6921 25.2295C27.488 25.2207 27.2838 25.1987 27.0797 25.2075C26.9151 25.2119 26.6759 25.1172 26.6474 25.4058C26.6188 25.6945 26.8493 25.7144 27.0556 25.7452ZM29.8824 24.694C29.5861 23.3542 28.1771 22.206 26.7769 22.1421C24.9684 22.0606 23.3487 23.0038 22.9009 24.3833C22.8022 24.683 22.9317 24.6962 23.1621 24.6962C25.4008 24.6918 27.6394 24.694 29.8824 24.694Z" fill="#3E3E40"/>
<path d="M27.6901 25.2272C28.2607 25.2183 28.8336 25.247 29.3976 25.1897C29.9638 25.1324 30.1416 25.3153 30.1328 25.8949C30.1021 28.1295 28.3683 29.7536 26.055 29.6633C24.0885 29.5861 22.4578 27.6424 22.5983 25.5753C22.6202 25.258 22.7344 25.1875 23.0175 25.1963C23.6935 25.2161 24.3694 25.2117 25.0454 25.2183C25.0081 25.3616 24.9664 25.5026 24.9357 25.6459C24.8216 26.2012 25.12 26.8227 25.6534 27.1488C26.1779 27.4706 26.8034 27.4199 27.3016 27.0144C27.7691 26.6331 27.9118 26.0513 27.6857 25.4387C27.6879 25.3704 27.6901 25.2999 27.6901 25.2272Z" fill="#FBFBFB"/>
<path d="M29.8824 24.6945C27.6394 24.6945 25.4008 24.6923 23.1621 24.6967C22.9339 24.6967 22.8044 24.6835 22.901 24.3838C23.3487 23.0065 24.9684 22.0611 26.7769 22.1426C28.1793 22.2065 29.5883 23.3546 29.8824 24.6945Z" fill="#FBFBFB"/>
<path d="M27.6878 25.443C27.9138 26.0557 27.7734 26.6375 27.3037 27.0187C26.8055 27.4242 26.18 27.4749 25.6554 27.1531C25.1221 26.827 24.8236 26.2033 24.9377 25.6502C24.9663 25.5069 25.0102 25.3637 25.0475 25.2227C25.3196 25.2227 25.5918 25.2227 25.8859 25.2227C25.6291 25.6303 25.482 26.0446 25.8486 26.4369C26.0922 26.6992 26.4477 26.708 26.7287 26.5603C27.0206 26.4083 27.2642 26.146 27.0579 25.7471C27.2993 25.7141 27.578 25.756 27.6878 25.443Z" fill="#87E212"/>
<path d="M27.6876 25.4428C27.5779 25.758 27.2992 25.7139 27.0556 25.747C26.8492 25.7161 26.6188 25.6963 26.6451 25.4032C26.6715 25.1145 26.9107 25.2115 27.0775 25.2048C27.2816 25.1982 27.4857 25.2181 27.6898 25.2269C27.6898 25.2996 27.6876 25.3701 27.6876 25.4428Z" fill="#F7F6F6"/>
<path d="M18.2383 2.68769C18.7343 2.36595 19.3093 2.3373 19.8558 2.36595C23.2138 2.55106 26.5717 2.44528 29.9275 2.42325C31.0863 2.41663 31.3519 3.17031 31.7667 3.85127C33.1538 6.12773 34.4969 8.43064 35.8555 10.7247C35.9389 10.8658 36.0333 10.9914 36.2023 11.0355C36.4195 11.972 37.0802 12.675 37.5235 13.4882C38.3531 15.0044 39.2925 16.4589 40.1616 17.9508C40.5566 18.6273 40.471 18.7618 39.6634 18.764C35.9564 18.7728 32.2495 18.7618 28.5426 18.775C28.0093 18.7772 27.6888 18.6229 27.4101 18.1139C26.6003 16.6418 25.707 15.2182 24.8488 13.7725C24.715 13.5455 24.5569 13.3913 24.2716 13.4508C24.2672 13.259 24.2629 13.0651 24.2585 12.8756C24.1136 12.6376 23.9666 12.3974 23.8195 12.1572C23.7229 12.0558 23.6286 11.9522 23.532 11.8508L23.5386 11.8795C23.4771 11.6966 23.4179 11.5137 23.3564 11.3308C23.3367 11.3153 23.3257 11.2911 23.3257 11.2536C23.2028 11.0972 23.0799 10.9429 22.9614 10.7908C22.8407 10.5639 22.7178 10.3325 22.5948 10.1011C22.5158 9.95342 22.439 9.80357 22.3622 9.65592L22.3732 9.66253C22.2656 9.51267 22.1603 9.36502 22.0527 9.21737C21.8794 8.95733 21.6555 8.71492 21.5414 8.43064C21.4031 8.08465 21.379 7.68578 20.8829 7.66374C20.8566 7.48744 20.8303 7.31114 20.8039 7.13704L20.8347 7.18773C20.714 7.03347 20.5954 6.877 20.4747 6.72274L20.5033 6.73376C20.4374 6.62578 20.3738 6.51779 20.3079 6.41201L20.3123 6.44287C20.2509 6.2864 20.1916 6.12994 20.1323 5.97127L20.1389 5.96906C20.0358 5.84786 19.9326 5.72665 19.8295 5.60545L19.8339 5.6363C19.768 5.47983 19.7044 5.32337 19.6385 5.1669L19.6078 5.12062C19.5244 4.95975 19.4432 4.79888 19.3598 4.638L19.362 4.65123C19.294 4.56528 19.2281 4.47933 19.1601 4.39339L19.1645 4.36915H19.1667C18.945 4.14216 18.8045 3.8667 18.6992 3.56919L18.7058 3.55817C18.6158 3.45019 18.5258 3.34221 18.4336 3.23643L18.4556 3.27389C18.3941 3.19455 18.3349 3.11522 18.2734 3.03589L18.2756 3.06453C18.2624 2.94112 18.2493 2.81551 18.2383 2.68769Z" fill="#87E212"/>
<path d="M17.6545 2.37283L0 33.0004L12.5561 32.6831L31.0842 2.03125L17.6545 2.37283ZM8.93041 29.7256L7.62673 31.9933C7.42043 32.3525 6.95953 32.4759 6.60179 32.2688C6.24404 32.0616 6.12114 31.5988 6.32744 31.2396L7.63112 28.972C7.83743 28.6128 8.29832 28.4893 8.65607 28.6965C9.01381 28.9036 9.13672 29.3664 8.93041 29.7256ZM12.1084 24.1083L10.8047 26.376C10.5984 26.7352 10.1375 26.8586 9.77978 26.6514C9.42203 26.4443 9.29913 25.9815 9.50543 25.6223L10.8091 23.3546C11.0154 22.9954 11.4763 22.872 11.8341 23.0792C12.1918 23.2863 12.3147 23.7491 12.1084 24.1083ZM15.6617 18.0194L14.358 20.287C14.1517 20.6462 13.6908 20.7696 13.3331 20.5625C12.9753 20.3553 12.8524 19.8926 13.0587 19.5333L14.3624 17.2657C14.5687 16.9065 15.0296 16.7831 15.3873 16.9902C15.7451 17.1974 15.868 17.6602 15.6617 18.0194ZM19.0262 12.1685L17.7226 14.4361C17.5162 14.7953 17.0554 14.9187 16.6976 14.7116C16.3399 14.5044 16.217 14.0416 16.4233 13.6824L17.7269 11.4148C17.9332 11.0556 18.3941 10.9322 18.7519 11.1393C19.1096 11.3465 19.2325 11.8092 19.0262 12.1685ZM21.0959 9.33665C20.8896 9.69586 20.4287 9.81926 20.0709 9.61211C19.7132 9.40496 19.5903 8.94218 19.7966 8.58297L21.1003 6.31532C21.3066 5.95611 21.7675 5.8327 22.1252 6.03985C22.4829 6.247 22.6059 6.70979 22.3995 7.069L21.0959 9.33665Z" fill="#3E3E40"/>
<path d="M40.9999 18.9446H27.8051L17.7246 2.34158L31.152 2L40.9999 18.9446Z" fill="#87E212"/>
</g>
<defs>
<clipPath id="clip0_28_3364">
<rect width="41" height="31" fill="white" transform="translate(0 2)"/>
</clipPath>
</defs>
</svg>
