<?xml version="1.0" encoding="utf-8"?>
<!-- Generator: Adobe Illustrator 24.3.0, SVG Export Plug-In . SVG Version: 6.00 Build 0)  -->
<svg version="1.1" id="Layer_1" xmlns="http://www.w3.org/2000/svg" xmlns:xlink="http://www.w3.org/1999/xlink" x="0px" y="0px"
	 viewBox="0 0 1769 427.4" style="enable-background:new 0 0 1769 427.4;" xml:space="preserve">
<style type="text/css">
	.st0{fill:#1D1D1B;}
	.st1{fill:#FFFFFF;}
	.st2{fill:#0052FF;}
	.st3{clip-path:url(#SVGID_2_);}
</style>
<g>
	<g>
		<path class="st0" d="M452.1,95.2h89.7c51.7,0,83,42.5,83,93.8c0,51-31.4,93.5-83,93.5h-89.7V95.2z M504.4,141.2v95.4h31.1
			c26,0,36.8-21.2,36.8-47.5s-10.8-47.8-36.8-47.8H504.4z"/>
		<path class="st0" d="M644.6,95.2h144.8v45.9h-92.5v25h86.5v43.1h-86.5v27.3h96v45.9H644.6V95.2z"/>
		<path class="st0" d="M801.5,95.2h57.7l39.6,118.8L939,95.2h57.4l-71,187.3h-52.6L801.5,95.2z"/>
		<path class="st0" d="M1017.5,95.8h129v15.5h-111.9v71.6h105.8v14.9h-105.8v84.9h-17.1V95.8z"/>
		<path class="st0" d="M1191.7,95.8v126.8c0,28.8,16.8,48.5,52.9,48.5c35.8,0,52.6-19.6,52.6-48.5V95.8h17.4v129
			c0,38-25.4,61.8-70,61.8c-44.7,0-70-23.8-70-61.8v-129H1191.7z"/>
		<path class="st0" d="M1356.2,95.8h17.1l116.9,157.5V95.8h17.1v187h-17.1l-116.9-157.2v157.2h-17.1V95.8z"/>
		<path class="st0" d="M1550.7,95.8h78c51.3,0,82.7,42.1,82.7,93.5c0,51.7-31.4,93.5-82.7,93.5h-78V95.8z M1568.1,111.3v155.9h58.9
			c44.1,0,66.9-36.8,66.9-78c0-41.5-22.8-78-66.9-78H1568.1z"/>
	</g>
	<rect x="1008.4" y="111.4" class="st1" width="45.1" height="39.8"/>
	<rect x="1541.1" y="205.2" class="st1" width="45.1" height="62"/>
	<polygon class="st1" points="1378.7,158.9 1338.3,107.8 1346,88.2 1383.4,139.5 	"/>
	<rect x="697.3" y="156.6" class="st1" width="10.9" height="147"/>
	<polygon class="st1" points="950.3,326.7 938.6,330.2 891,190.9 901.8,190.9 	"/>
</g>
<g>
	<path class="st2" d="M219.9,19L219.9,19c99.3,0,179.9,80.5,179.9,179.9l0,0c0,99.3-80.5,179.9-179.9,179.9l0,0
		C120.5,378.7,40,298.2,40,198.8l0,0C40,99.5,120.5,19,219.9,19z"/>
	<g>
		<defs>
			<rect id="SVGID_1_" x="134.8" y="113.4" width="170.4" height="170.4"/>
		</defs>
		<clipPath id="SVGID_2_">
			<use xlink:href="#SVGID_1_"  style="overflow:visible;"/>
		</clipPath>
		<g class="st3">
			<path class="st1" d="M219.9,283.9c47.1,0,85.4-38.1,85.4-85.2s-38.2-85.2-85.4-85.2c-44.7,0-81.4,34.3-85.1,78h112.8v14.3H134.8
				C138.5,249.5,175.2,283.9,219.9,283.9z"/>
		</g>
	</g>
</g>
<g>
	<path class="st0" d="M644.6,342.1h45.5v10.2h-33.9v17.1h32v9.6h-32v25.3h-11.6V342.1z"/>
	<path class="st0" d="M708,359.3v28.5c0,5.5,2.5,7.7,5.5,7.7c3.3,0.2,6.5-1.5,9.5-3.9c2.3-1.9,4.4-4.4,6.1-6.5v-25.8h11v45h-11
		v-10.5c-4.8,6.4-10.7,11.9-19.2,11.9c-6.5,0-12.8-4.3-12.8-13.9v-32.4H708z"/>
	<path class="st0" d="M750.7,359.3h11V370c4.9-6.4,12.3-11.9,20.7-11.9c6.5,0,13,4.1,13,13.8v32.3h-10.9v-28.3
		c0-5.4-2.5-7.5-5.5-7.8c-3.3-0.5-6.8,1.1-10.2,3.4c-2.8,2-5.4,4.7-7.2,7v25.8h-11V359.3z"/>
	<path class="st0" d="M803.8,381.8c-0.1-6,1.7-11.8,5.1-16.1c3.6-4.6,9.1-7.6,15.7-7.6c6.3,0,12.9,3.5,15.9,9.1v-25.1h10.8v62.1
		h-10.8v-7.6c-1.4,2.3-3.3,4.3-5.5,5.8c-3.1,2-6.7,3.2-10.4,3.2c-6.6,0-12.1-3.1-15.7-7.7c-3.4-4.2-5.2-10.1-5.1-16V381.8z
		 M814.2,381.9c0,7.9,4.8,14.4,13.2,14.4c3.6,0,6.6-1.2,8.7-3.5c2.8-2.6,4.4-6.7,4.4-11c0-4.3-1.6-8.4-4.4-11.2
		c-2-2.2-5.1-3.5-8.4-3.5C819.1,367.3,814.2,373.7,814.2,381.9z"/>
	<path class="st0" d="M895.6,342.1h45.5v10.2h-33.9v17.1h32v9.6h-32v25.3h-11.6V342.1z"/>
	<path class="st0" d="M959,359.3v28.5c0,5.5,2.5,7.7,5.5,7.7c3.3,0.2,6.5-1.5,9.5-3.9c2.3-1.9,4.4-4.4,6.1-6.5v-25.8h11v45h-11
		v-10.5c-4.8,6.4-10.7,11.9-19.2,11.9c-6.5,0-12.9-4.3-12.9-13.9v-32.4H959z"/>
	<path class="st0" d="M1012.4,345.9v13.4h15v8.5h-15v20.5c0,4.7,1.4,8.6,6.7,8.6c2.4,0,4.8-0.5,7.2-1.5l1.4,8.1c-3,1.3-8,2-11.5,2
		c-10.3,0-14.7-5.7-14.7-15.7v-44H1012.4z"/>
	<path class="st0" d="M1046.5,359.3v28.5c0,5.5,2.5,7.7,5.5,7.7c3.3,0.2,6.5-1.5,9.5-3.9c2.3-1.9,4.4-4.4,6.1-6.5v-25.8h11v45h-11
		v-10.5c-4.8,6.4-10.7,11.9-19.2,11.9c-6.5,0-12.9-4.3-12.9-13.9v-32.4H1046.5z"/>
	<path class="st0" d="M1100.2,359.3V370c3.5-8.4,10.9-11.9,19.7-11.9v11.1c-5.7-0.5-10.2,0.5-13.5,2.8c-4,3.1-6.2,7.9-6.2,14.2v18
		h-11.1v-45H1100.2z"/>
	<path class="st0" d="M1123.9,381.9c0-14.7,9.9-23.8,24.5-23.8c7.4,0,13.8,2.4,18.2,6.6c5.1,5.2,6.3,12.1,5.5,19.1h-36.9
		c0.8,8.1,6.4,12.9,14.5,13c4.9,0,9.5-1.3,13-4.9l7.3,5.4c-5.4,5.9-12.7,8.4-20.6,8.4C1134.6,405.6,1123.9,397.1,1123.9,381.9z
		 M1161.3,377.3c-0.2-7.5-6-11.7-13.1-11.7c-7,0-13,4.3-13,11.7H1161.3z"/>
	<path class="st0" d="M1199.1,358c6.6,0,13.7,1.6,19.6,4.6l-4.5,7c-3.5-1.9-10.9-4.1-14.9-4.1c-1.6,0-3.2,0.1-4.3,0.5
		c-1.4,0.2-2.4,0.8-3.1,1.7c-0.5,0.7-1.1,1.7-0.8,2.5c-0.1,1.1,0.3,2.1,1.5,2.7c2.2,1.5,6.2,2.8,9,3.6c1.9,0.5,3.7,0.9,5.7,1.7
		c4.5,1.4,9.6,3.7,11.9,7.9c1.7,2.8,2.1,6.3,0.6,9.5c-2.7,7.3-11.9,9.9-19,9.9c-7.7,0-16.4-2.2-22.6-7.1l4.7-6.8
		c2.8,1.7,6,3.2,9.2,4.3c2.7,0.7,5.8,1.4,8.7,1.6c3.3,0,8.2-0.8,9.1-4.7c0.2-1.4-0.2-2.8-1.3-3.9c-0.8-0.9-2.1-1.8-3.6-2.3
		c-1.7-0.6-3.4-1.1-5.3-1.6c-4.6-0.8-11.4-3-15-5.8c-2.4-1.7-3.8-4-4.2-6.4c-0.7-3.2,0.1-6,1.9-8.3
		C1186.5,359.8,1193.1,358,1199.1,358z"/>
	<path class="st0" d="M1257.7,342.1h12l11.7,44.1l11.4-44.1h11.4l11.7,44.1l11.5-44.1h12l-17.7,62.1h-11.7l-11.4-40.6l-11.5,40.6
		h-11.6L1257.7,342.1z"/>
	<path class="st0" d="M1344.7,347.7c0-3.3,3-5.9,6.5-5.9c3.6,0,6.6,2.6,6.6,5.9c0,3.4-3.1,6-6.6,6S1344.7,351,1344.7,347.7z
		 M1356.8,359.3v45h-11.1v-45H1356.8z"/>
	<path class="st0" d="M1378.1,345.9v13.4h15v8.5h-15v20.5c0,4.7,1.4,8.6,6.7,8.6c2.4,0,4.8-0.5,7.2-1.5l1.4,8.1c-3,1.3-8,2-11.5,2
		c-10.3,0-14.7-5.7-14.7-15.7v-44H1378.1z"/>
	<path class="st0" d="M1401.5,342.1h11V370c5.2-6.6,13-11.9,21.6-11.9c7.3,0.1,13.3,4.1,13.3,13.8v32.3h-10.7v-28.3c0-4.7-2-8-6.8-8
		c-6.5,0-13.5,5.8-17.3,10.5v25.8h-11V342.1z"/>
	<path class="st0" d="M1491.2,404.2v-62.1h33.9c8.6,0,16,5.9,16.3,15c0,7.2-4.5,12.3-11,14.2c9.2,1.5,14.1,8.2,14.2,15.4
		c0.1,9-7.2,17.6-18.6,17.6H1491.2z M1502.7,351.9v15.7h20.2c4.4,0,8-3.6,8-8c0-4.3-3.6-7.7-8-7.7H1502.7z M1502.7,376.2V394h22.3
		c5.3,0,8.8-4.2,8.8-9.1c0-4.6-3.6-8.7-8.8-8.7H1502.7z"/>
	<path class="st0" d="M1551.3,381.9c0-12.3,7.6-23.8,20.9-23.8c6.3,0,12.7,3.5,15.8,9v-7.8h10.9v45H1588v-7.6c-3.3,5.7-9.3,9-15.8,9
		C1559,405.6,1551.3,394.1,1551.3,381.9z M1561.7,381.9c0,7.9,4.8,14.4,13.2,14.4c8.3,0,13.1-6.5,13.1-14.4
		c0-7.6-4.6-14.6-12.6-14.6C1566.8,367.3,1561.7,373.7,1561.7,381.9z"/>
	<path class="st0" d="M1627.7,358c6.6,0,13.7,1.6,19.6,4.6l-4.5,7c-3.5-1.9-10.9-4.1-14.9-4.1c-1.6,0-3.2,0.1-4.3,0.5
		c-1.4,0.2-2.4,0.8-3.1,1.7c-0.5,0.7-1.1,1.7-0.8,2.5c-0.1,1.1,0.3,2.1,1.5,2.7c2.2,1.5,6.2,2.8,9,3.6c1.9,0.5,3.7,0.9,5.7,1.7
		c4.5,1.4,9.6,3.7,11.9,7.9c1.7,2.8,2.1,6.3,0.6,9.5c-2.7,7.3-11.9,9.9-19,9.9c-7.7,0-16.4-2.2-22.6-7.1l4.7-6.8
		c2.8,1.7,6,3.2,9.2,4.3c2.7,0.7,5.8,1.4,8.7,1.6c3.3,0,8.2-0.8,9.1-4.7c0.2-1.4-0.2-2.8-1.3-3.9c-0.8-0.9-2.1-1.8-3.6-2.3
		c-1.7-0.6-3.4-1.1-5.3-1.6c-4.6-0.8-11.4-3-15-5.8c-2.4-1.7-3.8-4-4.2-6.4c-0.7-3.2,0.1-6,1.9-8.3
		C1615.2,359.8,1621.7,358,1627.7,358z"/>
	<path class="st0" d="M1655.4,381.9c0-14.7,9.9-23.8,24.5-23.8c7.4,0,13.8,2.4,18.2,6.6c5.1,5.2,6.3,12.1,5.5,19.1h-36.9
		c0.8,8.1,6.4,12.9,14.5,13c4.9,0,9.5-1.3,13-4.9l7.3,5.4c-5.4,5.9-12.7,8.4-20.6,8.4C1666.2,405.6,1655.4,397.1,1655.4,381.9z
		 M1692.8,377.3c-0.2-7.5-6-11.7-13.1-11.7c-7,0-13,4.3-13,11.7H1692.8z"/>
</g>
</svg>
