<svg width="4654" height="1141" viewBox="0 0 4654 1141" fill="none" xmlns="http://www.w3.org/2000/svg">
<rect width="971" height="971" rx="111" fill="#0052FF"/>
<g clip-path="url(#clip0_158_476)">
<path d="M485.009 764.498C639.373 764.498 764.498 639.596 764.498 485.5C764.498 331.404 639.373 206.502 485.009 206.502C338.569 206.502 218.444 318.95 206.502 462.042H575.918V508.958H206.502C218.444 652.051 338.569 764.498 485.009 764.498Z" fill="white"/>
</g>
<path d="M971.12 38.4H972.596C972.94 38.4 973.232 38.524 973.472 38.772C973.72 39.012 973.844 39.304 973.844 39.648V46.752C973.844 47.104 973.716 47.4 973.46 47.64C973.212 47.88 972.924 48 972.596 48H971.12V38.4ZM972.596 46.884C972.62 46.884 972.648 46.872 972.68 46.848C972.712 46.816 972.728 46.784 972.728 46.752V39.648C972.728 39.568 972.684 39.528 972.596 39.528H972.248V46.884H972.596ZM976.089 39.516H975.213V42.564H975.849V43.68H975.213V46.884H976.089V48H974.085V38.4H976.089V39.516ZM977.081 48L976.205 38.4H977.333L977.621 42.084L977.669 43.512L977.717 42.084L978.029 38.4H979.169L978.209 48H977.081ZM981.351 39.516H980.475V42.552H981.111V43.68H980.475V48H979.347V38.4H981.351V39.516ZM982.834 48.084C982.458 48.084 982.146 47.968 981.898 47.736C981.65 47.496 981.526 47.2 981.526 46.848V38.4H982.654V46.848C982.654 46.896 982.67 46.932 982.702 46.956C982.734 46.98 982.774 46.992 982.822 46.992C982.862 46.992 982.898 46.98 982.93 46.956C982.962 46.932 982.978 46.896 982.978 46.848V38.4H984.094V46.848C984.094 47.232 983.958 47.54 983.686 47.772C983.454 47.98 983.17 48.084 982.834 48.084ZM986.175 38.4H987.291V48H985.971L985.575 44.496L985.455 43.2V48H984.339V38.4H985.743L986.055 41.52L986.175 42.912V38.4ZM987.526 38.4H989.002C989.346 38.4 989.638 38.524 989.878 38.772C990.126 39.012 990.25 39.304 990.25 39.648V46.752C990.25 47.104 990.122 47.4 989.866 47.64C989.618 47.88 989.33 48 989.002 48H987.526V38.4ZM989.002 46.884C989.026 46.884 989.054 46.872 989.086 46.848C989.118 46.816 989.134 46.784 989.134 46.752V39.648C989.134 39.568 989.09 39.528 989.002 39.528H988.654V46.884H989.002Z" fill="black"/>
<g clip-path="url(#clip1_158_476)">
<path d="M1333.6 170L1095 270.249V262.418L1316.68 170H1333.6ZM1260.33 170H1277.25L1095 246.755V238.923L1260.33 170ZM1203.98 170H1220.87L1095 223.26V215.428L1203.98 170ZM1147.6 170H1164.49L1095 199.765V191.934L1147.6 170ZM1095 170H1108.14L1095 176.271V170ZM1369.27 172.355L1382.42 173.149L1095 293.744V286.706L1369.27 172.355ZM1410.62 177.832L1421.9 180.186L1095 317.238V310.201L1410.62 177.832ZM1271.61 260.063V267.1L1095 340.733V333.696L1271.61 260.063ZM1271.61 283.557V290.595L1095 364.228V357.19L1271.61 283.557ZM1271.61 307.052V314.089L1095 387.722V380.685L1271.61 307.052ZM1271.61 330.547V337.584L1095 411.217V404.18L1271.61 330.547ZM1271.61 354.041V361.079L1095 434.712V427.674L1271.61 354.041ZM1271.61 377.536V384.573L1095 458.206V451.169L1271.61 377.536ZM1271.61 401.031V408.068L1095 481.701V474.663L1271.61 401.031ZM1271.61 423.731V431.563L1095 505.195V497.364L1271.61 423.731ZM1271.61 447.226V455.057L1095 528.69V520.859L1271.61 447.226ZM1271.61 470.72V478.552L1095 552.185V544.353L1271.61 470.72ZM1271.61 494.215V502.046L1095 575.679V567.848L1271.61 494.215ZM1271.61 517.71V525.541L1095 599.174V591.342L1271.61 517.71ZM1271.61 541.204V549.036L1095 622.669V614.837L1271.61 541.204ZM1271.61 564.699V572.53L1095 646.163V638.332L1271.61 564.699ZM1271.61 588.193V596.025L1095 669.658V661.826L1271.61 588.193ZM1271.61 611.688V619.52L1095 693.153V685.321L1271.61 611.688ZM1271.61 635.183V643.014L1095 716.647V708.816L1271.61 635.183ZM1271.61 659.471V666.509L1095 740.142V733.104L1271.61 659.471ZM1271.61 682.172V690.003L1095 763.636V755.805L1271.61 682.172ZM1271.61 705.667V713.498L1095 787.131V779.299L1271.61 705.667ZM1284.75 723.685H1301.64L1126.93 796.523H1110.03L1284.75 723.685ZM1183.3 796.523H1166.41L1521.48 648.518V656.35L1183.3 796.523ZM1239.65 796.523H1222.76L1521.46 672.013V679.844L1239.65 796.523ZM1296.03 796.523H1279.14L1521.48 695.507V703.339L1296.03 796.523ZM1309.17 243.606L1446.32 187.224L1455.72 190.346L1326.07 243.606H1309.17ZM1335.46 796.523L1521.46 719.002L1519.57 727.628L1356.13 795.757L1335.46 796.523ZM1346.74 252.231L1474.5 198.205L1482 202.12L1346.74 259.269V252.231ZM1346.74 282.763V275.726L1497.03 212.279L1502.67 216.989L1346.74 282.763ZM1346.74 306.258V299.22L1513.95 228.737L1517.71 235.007L1346.74 306.258ZM1346.74 322.715L1521.46 249.876V256.914L1346.74 329.753V322.715ZM1346.74 353.247V346.21L1521.46 273.371V280.408L1346.74 353.247ZM1346.74 376.742V369.704L1521.46 296.866V303.903L1346.74 376.742ZM1346.74 400.236V392.405L1521.46 319.566V327.398L1346.74 400.236ZM1346.74 423.731V415.899L1521.46 343.061V350.892L1346.74 423.731ZM1346.74 447.226V439.394L1521.46 366.555V374.387L1346.74 447.226ZM1346.74 470.72V462.889L1521.46 390.05V397.881L1346.74 470.72ZM1346.74 494.215V486.383L1521.46 413.545V421.376L1346.74 494.215ZM1346.74 517.71V509.878L1521.46 437.039V444.871L1346.74 517.71ZM1346.74 541.204V533.373L1521.46 460.534V468.365L1346.74 541.204ZM1346.74 564.699V556.867L1521.46 484.028V491.86L1346.74 564.699ZM1346.74 588.193V580.362L1521.46 507.523V515.355L1346.74 588.193ZM1346.74 611.688V603.856L1521.46 531.018V538.849L1346.74 611.688ZM1346.74 635.183V628.145L1521.46 555.306V562.344L1346.74 635.183ZM1346.74 658.677V650.846L1521.46 578.007V585.838L1346.74 658.677ZM1346.74 682.172V674.34L1521.46 601.502V609.333L1346.74 682.172ZM1346.74 705.667V697.835L1521.46 624.996V632.828L1346.74 705.667ZM1412.48 787.898L1500.78 750.301C1482 767.032 1452.57 779.573 1412.48 787.898Z" fill="#131823"/>
<path d="M1632.29 293.744V285.912L1910.32 170H1929.1L1632.29 293.744ZM1632.29 270.249V263.212L1855.86 170H1872.75L1632.29 270.249ZM1632.29 246.755V239.717L1799.48 170H1816.4L1632.29 246.755ZM1632.29 223.26V216.223L1743.13 170H1760.05L1632.29 223.26ZM1632.29 199.765V191.934L1684.89 170H1703.68L1632.29 199.765ZM1632.29 176.271V170H1647.33L1632.29 176.271ZM1632.29 317.238V309.407L1946.03 178.626V186.457L1810.76 242.839H1808.87V243.633L1632.29 317.238ZM1632.29 340.733V333.696L1808.9 259.296V267.128L1632.29 340.733ZM1632.29 364.228V357.19L1808.9 282.791V290.622L1632.29 364.228ZM1632.29 387.722V380.685L1808.9 306.285V314.117L1632.29 387.722ZM1632.29 411.217V404.18L1808.9 329.78V337.611L1632.29 411.217ZM1632.29 434.712V427.674L1808.9 353.275V361.106L1632.29 434.712ZM1632.29 458.206V451.169L1808.9 377.563V384.601L1632.29 458.206ZM1632.29 481.701V474.663L1808.9 401.058V408.095L1632.29 481.701ZM1632.29 505.195V498.158L1808.9 424.553V431.59L1632.29 505.195ZM1632.29 552.185V545.147L1880.28 441.776H1897.21L1632.29 552.185ZM1632.29 528.69V521.653L1823.93 441.776H1840.83L1632.29 528.69ZM1632.29 575.679V568.642L1908.46 453.524V460.561L1632.29 575.679ZM1632.29 599.174V592.137L1808.9 518.531V525.568L1632.29 599.174ZM1632.29 622.669V615.631L1808.9 542.026V549.063L1632.29 622.669ZM1632.29 646.163V639.126L1808.9 565.52V572.53L1632.29 646.163ZM1632.29 669.658V662.62L1808.9 588.221V596.052L1632.29 669.658ZM1632.29 693.153V685.321L1808.9 612.482V619.52L1632.29 693.153ZM1632.29 716.647V708.816L1808.9 635.21V643.042L1632.29 716.647ZM1632.29 740.142V732.31L1808.9 658.705V666.536L1632.29 740.142ZM1632.29 763.636V755.805L1808.9 682.199V690.031L1632.29 763.636ZM1632.29 787.131V779.299L1808.9 705.694V713.525L1632.29 787.131ZM1647.33 796.523L1822.04 723.685H1840.83L1666.11 796.523H1647.33ZM1703.68 796.523L1878.39 723.685H1897.18L1722.46 796.523H1703.68ZM1760.03 796.523L1934.74 723.685H1946.03V726.806L1778.81 796.496H1760.03V796.523ZM1816.4 796.523L1946.03 742.497V750.328L1835.19 796.523H1816.4ZM1818.27 514.588L1908.43 476.991V484.028L1835.16 514.56H1818.27V514.588ZM1848.33 242.839L1946.03 202.12V209.952L1867.11 242.839H1848.33ZM1874.64 514.588L1908.46 500.486V507.523L1891.56 514.56H1874.64V514.588ZM1874.64 796.523L1946.03 766.758V773.795L1891.54 796.496H1874.64V796.523ZM1904.71 242.839L1946.03 225.615V233.446L1923.49 242.839H1904.71ZM1929.1 796.523L1946.03 789.486V796.523H1929.1Z" fill="#131823"/>
<path d="M2039.94 175.477L2038.05 170H2053.08L2039.94 175.477ZM2045.58 197.41L2043.69 190.373L2092.54 170H2109.43L2045.58 197.41ZM2049.33 218.55L2047.44 211.513L2148.92 170H2165.81L2049.33 218.55ZM2054.97 239.69L2053.08 233.419L2205.27 170H2214.66L2216.55 172.355L2054.97 239.69ZM2058.73 261.624L2056.84 254.586L2218.41 187.224L2220.3 194.261L2058.73 261.624ZM2064.37 282.763L2062.48 276.493L2222.16 209.13L2224.05 216.168L2064.37 282.763ZM2068.12 304.697L2066.23 297.66L2227.8 231.092V238.129L2068.12 304.697ZM2073.76 325.837L2071.87 319.566L2231.55 252.998V260.035L2073.76 325.837ZM2077.51 347.771L2075.62 341.5L2235.3 274.932L2237.19 281.969L2077.51 347.771ZM2083.15 368.91L2081.26 362.64L2239.08 296.866L2240.97 303.136L2083.15 368.91ZM2086.9 390.844L2085.01 384.573L2242.81 318.799L2244.7 325.07L2086.9 390.844ZM2092.54 411.984L2090.65 405.713L2246.59 340.706L2248.47 346.976L2092.54 411.984ZM2096.29 433.917L2094.4 427.647L2252.23 361.873V368.91L2096.29 433.917ZM2101.93 455.057L2100.04 448.786L2255.98 383.779V390.817L2101.93 455.057ZM2105.71 476.991L2103.82 470.72L2259.76 405.713V412.75L2105.71 476.991ZM2111.32 498.131L2109.43 491.86L2261.62 428.414V435.451L2111.32 498.131ZM2115.1 520.064L2113.21 513.027L2263.51 450.375V458.206L2115.1 520.064ZM2120.72 541.204L2118.83 534.933L2265.37 473.075V480.907L2120.72 541.204ZM2124.49 563.138L2122.6 556.101L2267.26 495.803V503.635L2124.49 563.138ZM2130.11 584.278L2128.22 578.007L2436.31 449.581L2434.42 457.412L2130.11 584.278ZM2133.89 606.211L2132 599.174L2428.83 475.43L2426.94 484.056L2133.89 606.211ZM2139.53 627.351L2137.64 620.314L2423.19 502.046L2421.3 509.878L2139.53 627.351ZM2143.28 649.285L2141.39 642.247L2417.55 527.896L2415.66 535.728L2143.28 649.285ZM2148.92 670.425L2147.03 663.387L2410.05 553.746L2408.16 562.371L2148.92 670.425ZM2152.67 692.358L2150.78 685.321L2404.41 579.595L2402.52 588.221L2152.67 692.358ZM2158.31 713.498L2156.42 706.461L2398.77 606.211L2396.88 614.043L2158.31 713.498ZM2162.06 735.432V729.161L2391.27 632.828L2389.38 640.659L2162.06 735.432ZM2167.7 756.572L2165.81 749.534L2385.63 657.911L2383.74 666.536L2167.7 756.572ZM2171.45 778.505L2169.56 771.468L2379.99 684.527L2378.1 692.358L2171.45 778.505ZM2175.2 796.523V792.608L2372.46 710.376L2370.57 719.002L2184.57 796.523H2175.2ZM2222.19 796.523L2366.84 736.226L2364.95 744.852L2240.97 796.551H2222.19V796.523ZM2267.26 503.635L2269.15 495.803L2441.98 423.758L2440.09 431.59L2267.26 503.635ZM2269.15 479.346L2271.04 471.514L2447.62 397.115L2445.73 405.74L2269.15 479.346ZM2272.9 455.057V447.226L2455.12 371.265L2453.23 379.097L2272.9 455.057ZM2274.79 430.796V422.964L2460.79 345.443L2458.9 353.275L2274.79 430.796ZM2276.65 405.74L2278.54 397.909L2466.4 319.593L2464.51 327.425L2276.65 405.74ZM2278.54 796.523L2361.2 762.076L2359.31 770.701L2297.32 796.551H2278.54V796.523ZM2282.29 379.891L2284.18 372.853L2473.93 292.977L2472.04 300.809L2282.29 379.891ZM2286.04 354.835L2287.93 347.004L2479.57 267.128L2477.68 274.959L2286.04 354.835ZM2291.68 328.986L2293.57 321.154L2485.18 241.278L2483.29 249.11L2291.68 328.986ZM2297.32 303.136L2299.21 295.305L2492.71 214.634L2490.82 222.466L2297.32 303.136ZM2302.96 277.287L2304.85 269.455L2498.35 188.785L2496.46 196.616L2302.96 277.287ZM2308.6 252.231V244.4L2487.07 170H2502.1V170.794L2308.6 252.231ZM2312.35 226.382L2314.24 218.55L2430.72 170H2447.62L2312.35 226.382ZM2317.99 200.532L2319.88 192.701L2372.46 170H2391.24L2317.99 200.532ZM2323.64 174.71V170H2334.92L2323.64 174.71ZM2334.89 796.523L2353.67 788.692L2351.78 796.523H2334.89Z" fill="#131823"/>
<path d="M2917.25 242.839H2780.1V440.982H2879.66V514.588H2780.1V796.523H2603.5V170H2917.23V242.839H2917.25Z" fill="#131823"/>
<path d="M3076.94 778.916C3038.11 763.527 3018.7 744.331 3018.7 721.357V170H3195.31V721.33C3195.31 724.451 3197.8 726.806 3202.81 728.367C3207.79 729.928 3214.09 730.722 3221.59 730.722C3227.83 730.722 3233.47 729.928 3238.49 728.367C3243.47 726.806 3245.99 724.451 3245.99 721.33V170H3420.71V721.33C3420.71 746.385 3399.4 766.484 3356.83 781.627C3320.49 795.209 3276.05 802 3223.45 802C3164.58 802 3115.74 794.305 3076.94 778.916Z" fill="#131823"/>
<path d="M3818.99 170H3993.7V796.523H3787.06L3725.07 567.848L3706.29 483.262V796.523H3531.57V170H3751.38L3800.23 373.62L3819.01 464.477V170H3818.99Z" fill="#131823"/>
<path d="M4104.54 170H4335.61C4389.44 170 4435.47 177.968 4473.69 193.878C4511.89 209.815 4531 229.01 4531 251.437V715.059C4531 738.033 4511.26 757.338 4471.83 773.001C4432.37 788.664 4386.98 796.496 4335.64 796.496H4104.57V170H4104.54ZM4335.61 723.685C4338.1 723.685 4343.11 722.644 4350.64 720.563C4354.39 717.441 4356.28 715.607 4356.28 715.086V251.437C4356.28 250.397 4355.63 249.356 4354.39 248.315C4353.13 247.275 4351.87 246.234 4350.64 245.194C4343.14 244.153 4338.1 243.633 4335.61 243.633H4281.12V723.685H4335.61Z" fill="#131823"/>
</g>
<defs>
<clipPath id="clip0_158_476">
<rect width="557.995" height="557.995" fill="white" transform="translate(206.502 206.502)"/>
</clipPath>
<clipPath id="clip1_158_476">
<rect width="3436" height="632" fill="white" transform="translate(1095 170)"/>
</clipPath>
</defs>
</svg>
