<svg width="41" height="31" viewBox="0 0 41 31" fill="none" xmlns="http://www.w3.org/2000/svg">
<g clip-path="url(#clip0_28_3352)">
<path d="M26.5288 30.9757C25.1549 29.5741 23.9808 28.4105 22.8461 27.2117C21.0288 25.29 21.0595 22.3635 22.89 20.4594C24.6502 18.6281 27.6548 18.4915 29.5839 20.2126C31.6602 22.0638 31.8555 25.1314 29.8297 27.3439C28.7412 28.5339 27.6613 29.7306 26.5288 30.9757ZM27.0556 23.7452C27.2641 24.1441 27.0183 24.4063 26.7264 24.5584C26.4454 24.7061 26.0899 24.6972 25.8463 24.435C25.4798 24.0405 25.6268 23.6284 25.8836 23.2207C25.5895 23.2207 25.3173 23.2207 25.0474 23.2207C24.3714 23.2141 23.6954 23.2185 23.0195 23.1987C22.7341 23.1899 22.6222 23.2604 22.6003 23.5777C22.4598 25.6448 24.0905 27.5885 26.057 27.6657C28.3702 27.756 30.1041 26.1341 30.1348 23.8973C30.1436 23.3155 29.9658 23.1348 29.3996 23.1921C28.8355 23.2494 28.2605 23.2207 27.6921 23.2295C27.488 23.2207 27.2838 23.1987 27.0797 23.2075C26.9151 23.2119 26.6759 23.1172 26.6474 23.4058C26.6188 23.6945 26.8493 23.7144 27.0556 23.7452ZM29.8824 22.694C29.5861 21.3542 28.1771 20.206 26.7769 20.1421C24.9684 20.0606 23.3487 21.0038 22.9009 22.3833C22.8022 22.683 22.9317 22.6962 23.1621 22.6962C25.4008 22.6918 27.6394 22.694 29.8824 22.694Z" fill="#3E3E40"/>
<path d="M27.6901 23.2272C28.2607 23.2183 28.8336 23.247 29.3976 23.1897C29.9638 23.1324 30.1416 23.3153 30.1328 23.8949C30.1021 26.1295 28.3683 27.7536 26.055 27.6633C24.0885 27.5861 22.4578 25.6424 22.5983 23.5753C22.6202 23.258 22.7344 23.1875 23.0175 23.1963C23.6935 23.2161 24.3694 23.2117 25.0454 23.2183C25.0081 23.3616 24.9664 23.5026 24.9357 23.6459C24.8216 24.2012 25.12 24.8227 25.6534 25.1488C26.1779 25.4706 26.8034 25.4199 27.3016 25.0144C27.7691 24.6331 27.9118 24.0513 27.6857 23.4387C27.6879 23.3704 27.6901 23.2999 27.6901 23.2272Z" fill="#FBFBFB"/>
<path d="M29.8824 22.6945C27.6394 22.6945 25.4008 22.6923 23.1621 22.6967C22.9339 22.6967 22.8044 22.6835 22.901 22.3838C23.3487 21.0065 24.9684 20.0611 26.7769 20.1426C28.1793 20.2065 29.5883 21.3546 29.8824 22.6945Z" fill="#FBFBFB"/>
<path d="M27.6878 23.443C27.9138 24.0557 27.7734 24.6375 27.3037 25.0187C26.8055 25.4242 26.18 25.4749 25.6554 25.1531C25.1221 24.827 24.8236 24.2033 24.9377 23.6502C24.9663 23.5069 25.0102 23.3637 25.0475 23.2227C25.3196 23.2227 25.5918 23.2227 25.8859 23.2227C25.6291 23.6303 25.482 24.0446 25.8486 24.4369C26.0922 24.6992 26.4477 24.708 26.7287 24.5603C27.0206 24.4083 27.2642 24.146 27.0579 23.7471C27.2993 23.7141 27.578 23.756 27.6878 23.443Z" fill="#87E212"/>
<path d="M27.6876 23.4428C27.5779 23.758 27.2992 23.7139 27.0556 23.747C26.8492 23.7161 26.6188 23.6963 26.6451 23.4032C26.6715 23.1145 26.9107 23.2115 27.0775 23.2048C27.2816 23.1982 27.4857 23.2181 27.6898 23.2269C27.6898 23.2996 27.6876 23.3701 27.6876 23.4428Z" fill="#F7F6F6"/>
<path d="M18.2383 0.687695C18.7343 0.365949 19.3093 0.3373 19.8558 0.365949C23.2138 0.551063 26.5717 0.445283 29.9275 0.423246C31.0863 0.416635 31.3519 1.17031 31.7667 1.85127C33.1538 4.12773 34.4969 6.43064 35.8555 8.72473C35.9389 8.86577 36.0333 8.99138 36.2023 9.03546C36.4195 9.97205 37.0802 10.675 37.5235 11.4882C38.3531 13.0044 39.2925 14.4589 40.1616 15.9508C40.5566 16.6273 40.471 16.7618 39.6634 16.764C35.9564 16.7728 32.2495 16.7618 28.5426 16.775C28.0093 16.7772 27.6888 16.6229 27.4101 16.1139C26.6003 14.6418 25.707 13.2182 24.8488 11.7725C24.715 11.5455 24.5569 11.3913 24.2716 11.4508C24.2672 11.259 24.2629 11.0651 24.2585 10.8756C24.1136 10.6376 23.9666 10.3974 23.8195 10.1572C23.7229 10.0558 23.6286 9.95221 23.532 9.85084L23.5386 9.87949C23.4771 9.69658 23.4179 9.51367 23.3564 9.33076C23.3367 9.31533 23.3257 9.29109 23.3257 9.25363C23.2028 9.09716 23.0799 8.9429 22.9614 8.79084C22.8407 8.56386 22.7178 8.33247 22.5948 8.10107C22.5158 7.95342 22.439 7.80357 22.3622 7.65592L22.3732 7.66253C22.2656 7.51267 22.1603 7.36502 22.0527 7.21737C21.8794 6.95733 21.6555 6.71492 21.5414 6.43064C21.4031 6.08465 21.379 5.68578 20.8829 5.66374C20.8566 5.48744 20.8303 5.31114 20.8039 5.13704L20.8347 5.18773C20.714 5.03347 20.5954 4.877 20.4747 4.72274L20.5033 4.73376C20.4374 4.62578 20.3738 4.51779 20.3079 4.41201L20.3123 4.44287C20.2509 4.2864 20.1916 4.12994 20.1323 3.97127L20.1389 3.96906C20.0358 3.84786 19.9326 3.72665 19.8295 3.60545L19.8339 3.6363C19.768 3.47983 19.7044 3.32337 19.6385 3.1669L19.6078 3.12062C19.5244 2.95975 19.4432 2.79888 19.3598 2.638L19.362 2.65123C19.294 2.56528 19.2281 2.47933 19.1601 2.39339L19.1645 2.36915H19.1667C18.945 2.14216 18.8045 1.8667 18.6992 1.56919L18.7058 1.55817C18.6158 1.45019 18.5258 1.34221 18.4336 1.23643L18.4556 1.27389C18.3941 1.19455 18.3349 1.11522 18.2734 1.03589L18.2756 1.06453C18.2624 0.941125 18.2493 0.815512 18.2383 0.687695Z" fill="#87E212"/>
<path d="M17.6545 0.37283L0 31.0004L12.5561 30.6831L31.0842 0.03125L17.6545 0.37283ZM8.93041 27.7256L7.62673 29.9933C7.42043 30.3525 6.95953 30.4759 6.60179 30.2688C6.24404 30.0616 6.12114 29.5988 6.32744 29.2396L7.63112 26.972C7.83743 26.6128 8.29832 26.4893 8.65607 26.6965C9.01381 26.9036 9.13672 27.3664 8.93041 27.7256ZM12.1084 22.1083L10.8047 24.376C10.5984 24.7352 10.1375 24.8586 9.77978 24.6514C9.42203 24.4443 9.29913 23.9815 9.50543 23.6223L10.8091 21.3546C11.0154 20.9954 11.4763 20.872 11.8341 21.0792C12.1918 21.2863 12.3147 21.7491 12.1084 22.1083ZM15.6617 16.0194L14.358 18.287C14.1517 18.6462 13.6908 18.7696 13.3331 18.5625C12.9753 18.3553 12.8524 17.8926 13.0587 17.5333L14.3624 15.2657C14.5687 14.9065 15.0296 14.7831 15.3873 14.9902C15.7451 15.1974 15.868 15.6602 15.6617 16.0194ZM19.0262 10.1685L17.7226 12.4361C17.5162 12.7953 17.0554 12.9187 16.6976 12.7116C16.3399 12.5044 16.217 12.0416 16.4233 11.6824L17.7269 9.41477C17.9332 9.05556 18.3941 8.93215 18.7519 9.1393C19.1096 9.34646 19.2325 9.80924 19.0262 10.1685ZM21.0959 7.33665C20.8896 7.69586 20.4287 7.81926 20.0709 7.61211C19.7132 7.40496 19.5903 6.94218 19.7966 6.58297L21.1003 4.31532C21.3066 3.95611 21.7675 3.8327 22.1252 4.03985C22.4829 4.247 22.6059 4.70979 22.3995 5.069L21.0959 7.33665Z" fill="#3E3E40"/>
<path d="M40.9999 16.9446H27.8051L17.7246 0.34158L31.152 0L40.9999 16.9446Z" fill="#87E212"/>
</g>
<defs>
<clipPath id="clip0_28_3352">
<rect width="41" height="31" fill="white"/>
</clipPath>
</defs>
</svg>
